<?xml version="1.0" encoding="utf-8"?>
<!-- Generator: Adobe Illustrator 16.0.0, SVG Export Plug-In . SVG Version: 6.00 Build 0)  -->
<!DOCTYPE svg PUBLIC "-//W3C//DTD SVG 1.1//EN" "http://www.w3.org/Graphics/SVG/1.1/DTD/svg11.dtd">
<svg version="1.1" id="Layer_1" xmlns="http://www.w3.org/2000/svg" xmlns:xlink="http://www.w3.org/1999/xlink" x="0px" y="0px"
	 width="610px" height="655px" viewBox="0 0 610 655" enable-background="new 0 0 610 655" xml:space="preserve">
<circle fill="#79D1C0" cx="309.458" cy="339.31" r="167.336"/>
<g>
	<polygon fill="#8DD2D4" points="580.294,551.54 522.904,551.54 522.904,598.39 580.294,598.39 569.163,574.965 	"/>
	<polygon fill="#8DD2D4" points="45.706,551.546 103.096,551.546 103.096,598.395 45.706,598.395 56.837,574.971 	"/>
	<rect x="91.747" y="536.905" fill="#50C1BA" width="442.581" height="51.785"/>
	<polygon fill="#3B9990" points="91.747,588.69 103.096,598.395 103.096,588.69 	"/>
	<polygon fill="#3B9990" points="534.254,588.685 522.904,598.39 522.904,588.685 	"/>
</g>
<circle fill="#79D1C0" cx="97.251" cy="235.398" r="50.142"/>
<circle fill="#79D1C0" cx="143.879" cy="103.193" r="50.142"/>
<circle fill="#79D1C0" cx="484.61" cy="95.439" r="50.142"/>
<circle fill="#79D1C0" cx="522.516" cy="234.687" r="50.142"/>
<g>
	<g>
		<path fill="#592A0E" d="M218.164,156.99c0,0,1.301-43.584,74.868-68.437c51.882-17.49,125.118,4.967,128.854,87.951
			c2.342,51.39-14.288,79.875-23.188,120.162c-4.391,19.527-1.759,42.119,7.108,55.077c0,0,10.489,14.248,21.673,7.489
			c0,0-9.768,15.968-42.088,12.637c0,0-15.783-2.598-28.998-8.811c-29.713-13.947-66.454-11.315-49.199,4.218
			c0,0-30.599-2.755-50.64,9.312c-9.278,5.562-33.653-0.957-33.653-0.957s9.049-4.15,12.729-9.02
			c1.47-1.943,4.778-5.107,4.778-5.107s-0.845,5.01-13.768,6.216c-12.892,1.209-21.53-9.33-21.53-9.33s11.757,13.596,28.38-20.891
			c4.152-8.746,4.638-17.138-0.472-35.917c-6.166-22.602-23.601-35.674-27.243-74.148
			C202.974,197.822,207.226,189.734,218.164,156.99z"/>
		
			<linearGradient id="SVGID_1_" gradientUnits="userSpaceOnUse" x1="124.6938" y1="322.8896" x2="184.582" y2="322.8896" gradientTransform="matrix(1 0 0 -1 84 630)">
			<stop  offset="0" style="stop-color:#A85E20"/>
			<stop  offset="0.9483" style="stop-color:#592A0E"/>
		</linearGradient>
		<path opacity="0.2" fill="url(#SVGID_1_)" enable-background="new    " d="M260.833,262.105c0,0-7.977-20.626-27.568-5.149
			c0,0,16.915,48.987,11.986,68.968c-2.828,10.987-17.591,38.245-36.557,35.457c0,0,25.072,10.112,45.942-19.854
			C265.048,326.642,276.628,280.059,260.833,262.105z"/>
	</g>
	
		<linearGradient id="SVGID_2_" gradientUnits="userSpaceOnUse" x1="235.23" y1="558.9561" x2="229.5242" y2="292.6942" gradientTransform="matrix(1 0 0 -1 84 630)">
		<stop  offset="0.4137" style="stop-color:#3E1C13"/>
		<stop  offset="1" style="stop-color:#592A0E"/>
	</linearGradient>
	<path fill="url(#SVGID_2_)" d="M405.975,201.427c0,0-68.104,125.104,1.188,156.08c0,0-58.183-3.763-70.614-28.471l1.322,38.391
		H237.513c0,0,61.946-24.795-2.465-105.325c0,0-59.481-146.145,75.513-164.725C376.95,88.243,429.506,139.492,405.975,201.427z"/>
</g>
<g>
	
		<radialGradient id="SVGID_3_" cx="227.0322" cy="352.5176" r="44.4445" gradientTransform="matrix(1 0 0 -1 84 630)" gradientUnits="userSpaceOnUse">
		<stop  offset="0" style="stop-color:#F3AC88"/>
		<stop  offset="1" style="stop-color:#FDCB95"/>
	</radialGradient>
	<path fill="url(#SVGID_3_)" d="M272.193,462.506c-4.02,13.439-7.514,25.795-7.94,36.61c1.526-0.288,3.052-0.601,4.575-0.963
		c28.228-6.729,56.357-13.529,84.915-18.407c-6.983-14.636-17.293-27.925-19.964-36.93c-4.889-16.476,9.554-49.425,26.941-68.988
		c0,0,27.514-17.26,10.659-38.491c-4.735-5.966-16.819-3.656-29.312-11.842c-8.586-5.627-14.478-17.849-11.473-30.867
		c2.663-11.547,6.883-15.544,6.883-15.544l-33.727,10.299c0,0,11.696,17.275,3.262,31.52c-4.62,7.8-26.14,8.038-34.822,14.808
		c-10.333,8.058-10.024,22.232-4.737,39.23C275.129,397.611,286.405,414.984,272.193,462.506z"/>
</g>
<g>
	<g>
		<path fill="#FDCB95" d="M375.839,211.289c0,0,20.646-31.829,29.94-9.451c0,0,6.368,25.72-27.387,33.56l-11.549-1.67
			L375.839,211.289z"/>
		<path fill="#E2A66A" d="M394.768,206.861c0,0-14.342,7.747-13.748,17.64c0,0,9.799,0.408,11.357-5.501c0,0-1.559-4.938-3.355-4.6
			C389.021,214.399,397.613,206.117,394.768,206.861z"/>
	</g>
	<path fill="#FDCB95" d="M375.035,253.916c-9.764,19.338-38.176,31.789-51.112,37.937c-13.659,7.875-26.797,10.393-35.451,6.45
		c-10.548-4.807-27.301-26.052-35.557-36.317c-5.23-6.502-14.161-18.886-14.025-32.46c0.156-15.718,3.98-17.292,3.525-26.012
		c-0.41-7.889-17.094-100.838,67.532-108.69c57.588,0.199,85.91,50.586,70.859,108.239
		C379.032,215.721,386.583,231.043,375.035,253.916z"/>
	
		<radialGradient id="SVGID_4_" cx="-10.8682" cy="403.9355" r="9.4153" gradientTransform="matrix(2.558 0.1934 0.1934 -2.558 298.5651 1270.983)" gradientUnits="userSpaceOnUse">
		<stop  offset="0" style="stop-color:#F3AC88"/>
		<stop  offset="1" style="stop-color:#FDCB95"/>
	</radialGradient>
	<path fill="url(#SVGID_4_)" d="M376.152,237.68c-1.014,13.384-14.041,23.312-29.1,22.172
		c-15.057-1.138-26.443-12.912-25.432-26.296c1.012-13.386,14.041-23.313,29.098-22.175
		C365.775,212.519,377.164,224.293,376.152,237.68z"/>
	
		<linearGradient id="SVGID_5_" gradientUnits="userSpaceOnUse" x1="179.2847" y1="444.4893" x2="212.7283" y2="491.5108" gradientTransform="matrix(0.9972 0.0754 0.0754 -0.9972 52.7952 638.8245)">
		<stop  offset="0" style="stop-color:#FDCB95"/>
		<stop  offset="1" style="stop-color:#F19B82"/>
	</linearGradient>
	<path fill="url(#SVGID_5_)" d="M248.928,177.283c-1.491,0.763-3.161,2.609-4.129,7.481c-1.68,8.462,0.08,23.888,7.097,35.724
		c11.061,18.651,34.344,15.068,34.344,15.068s26.43-50.112-25.376-60.042C256.348,174.647,253.098,175.148,248.928,177.283z"/>
	
		<radialGradient id="SVGID_6_" cx="66.04" cy="413.7441" r="10.0838" gradientTransform="matrix(1.4514 0.1098 0.1235 -1.633 109.3756 896.6852)" gradientUnits="userSpaceOnUse">
		<stop  offset="0" style="stop-color:#F3AC88"/>
		<stop  offset="1" style="stop-color:#FDCB95"/>
	</radialGradient>
	<circle fill="url(#SVGID_6_)" cx="256.323" cy="228.292" r="15.514"/>
	
		<linearGradient id="SVGID_7_" gradientUnits="userSpaceOnUse" x1="204.5415" y1="409.04" x2="208.3817" y2="418.6129" gradientTransform="matrix(0.9972 0.0754 0.0754 -0.9972 52.7952 638.8245)">
		<stop  offset="0" style="stop-color:#FDCB95"/>
		<stop  offset="0.1725" style="stop-color:#F5BA8D"/>
	</linearGradient>
	<path fill="url(#SVGID_7_)" d="M283.146,238.179c0,0,3.027,10.028,5.589,8.551c0,0,6.581,0.523,9.489-4.738l-9.401,0.625
		C288.823,242.617,284.649,241.856,283.146,238.179z"/>
	<path fill="#F8CFAF" d="M290.874,224.603c0,0-1.67,8.646-5.864,12.314c0,0-0.854,1.125-1.838,1.19c0,0-0.997-1.614-0.041-3.15
		C283.988,233.578,289.102,231.726,290.874,224.603z"/>
	
		<ellipse transform="matrix(0.0761 -0.9971 0.9971 0.0761 106.041 566.1887)" fill="#F8CFAF" cx="358.535" cy="225.875" rx="4.442" ry="5.626"/>
	
		<ellipse transform="matrix(0.0755 -0.9971 0.9971 0.0755 11.117 454.0616)" fill="#F8CFAF" cx="250.434" cy="221.035" rx="3.553" ry="4.22"/>
</g>
<g>
	<g>
		<path fill="#FFF2E9" d="M318.578,203.845c0,0,9.656-22.137,32.617-12.009c0,0,7.131,5.498,8.133,9.597
			c0,0-0.596,15.465-25.904,13.735C333.424,215.168,326.195,214.421,318.578,203.845z"/>
		<g>
			
				<linearGradient id="SVGID_8_" gradientUnits="userSpaceOnUse" x1="191.0854" y1="407.6309" x2="199.2732" y2="439.0168" gradientTransform="matrix(1.1856 0.0109 0.0104 -1.1235 105.0787 676.5242)">
				<stop  offset="0.2997" style="stop-color:#E6AF22"/>
				<stop  offset="0.8242" style="stop-color:#BB7F2B"/>
			</linearGradient>
			<path fill="url(#SVGID_8_)" d="M354.823,202.995c-0.066,7.266-6.337,13.102-14.009,13.032
				c-7.668-0.069-13.832-6.02-13.764-13.287c0.065-7.268,6.34-13.104,14.008-13.032C348.73,189.779,354.893,195.728,354.823,202.995
				z"/>
			<path fill="#673D17" d="M349.523,202.537c-0.043,4.412-3.531,7.956-7.793,7.914c-4.263-0.042-7.682-3.653-7.637-8.067
				c0.042-4.412,3.532-7.959,7.793-7.914C346.152,194.513,349.566,198.124,349.523,202.537z"/>
			<path fill="#F3EDCD" d="M338.154,200.066c-0.019,1.905-1.53,3.435-3.379,3.419c-1.851-0.018-3.336-1.575-3.319-3.482
				c0.021-1.906,1.532-3.437,3.382-3.417C336.688,196.604,338.172,198.162,338.154,200.066z"/>
		</g>
		<path fill="#F6BB81" d="M317.371,204.393c0,0,6.203-21.214,24.291-23.545c0,0,17.472-1.35,18.582,17.213
			c0,0-7.655-11.749-23.021-7.283C321.854,195.244,317.371,204.393,317.371,204.393z"/>
		
			<linearGradient id="SVGID_9_" gradientUnits="userSpaceOnUse" x1="186.8789" y1="432.9482" x2="233.3096" y2="432.9482" gradientTransform="matrix(1.1244 0.006 0.0054 -1 104.9568 627.129)">
			<stop  offset="0.3642" style="stop-color:#3B2314"/>
			<stop  offset="0.7655" style="stop-color:#050000"/>
		</linearGradient>
		<path fill="url(#SVGID_9_)" d="M317.371,204.393c0,0,22.645-25.579,41.957-2.959c0,0,4.888,0.538,10.316-8.976
			c0,0-2.653,4.868-10.343,3.376c0,0-9.515-13.667-25.28-8.213C328.555,190.017,320.667,198.037,317.371,204.393z"/>
		<path fill="#F6BB81" d="M359.949,201.319c0,0-7.771,20.874-28.904,13.563C331.045,214.882,355.286,226.19,359.949,201.319z"/>
	</g>
	<g>
		<path fill="#F9EFE5" d="M287.278,205.018c0,0-9.024-19.356-27.313-13.036c0,0-5.86,3.824-6.938,6.993
			c0,0-0.73,12.283,18.704,12.785C271.73,211.76,284.37,210.988,287.278,205.018z"/>
		<path fill="#F4B283" d="M286.004,202.697c0,0-1.532-19.493-17.917-20.732c0,0-15.747-0.101-18.507,13.577
			c0,0,9.747-8.036,21.124-3.366C282.081,196.847,286.004,202.697,286.004,202.697z"/>
		<g>
			<g>
				<defs>
					<path id="SVGID_10_" d="M286.869,204.542c0,0-8.567-19.243-29.854-11.988c0,0-2.667,3.39-3.744,6.561
						c0,0-0.268,12.8,18.702,12.786C271.973,211.902,283.961,210.51,286.869,204.542z"/>
				</defs>
				<clipPath id="SVGID_11_">
					<use xlink:href="#SVGID_10_"  overflow="visible"/>
				</clipPath>
				<g clip-path="url(#SVGID_11_)">
					
						<linearGradient id="SVGID_12_" gradientUnits="userSpaceOnUse" x1="-697.6689" y1="449.873" x2="-689.4803" y2="481.2623" gradientTransform="matrix(-0.8579 -0.0785 0.079 -0.8637 -358.1857 549.7614)">
						<stop  offset="0.2997" style="stop-color:#E6AF22"/>
						<stop  offset="0.8242" style="stop-color:#BB7F2B"/>
					</linearGradient>
					<path fill="url(#SVGID_12_)" d="M263.54,201.035c-0.512,5.588,3.572,10.529,9.124,11.037c5.55,0.507,10.461-3.612,10.973-9.198
						c0.512-5.586-3.576-10.527-9.122-11.037C268.965,191.33,264.052,195.448,263.54,201.035z"/>
					
						<ellipse transform="matrix(-0.091 0.9958 -0.9958 -0.091 500.1394 -52.1534)" fill="#673D17" cx="273.872" cy="202.178" rx="6.196" ry="6.154"/>
					
						<ellipse transform="matrix(-0.0913 0.9958 -0.9958 -0.0913 492.0987 -50.802)" fill="#F3EDCD" cx="269.229" cy="199.126" rx="2.664" ry="2.645"/>
				</g>
			</g>
		</g>
		
			<linearGradient id="SVGID_13_" gradientUnits="userSpaceOnUse" x1="-707.8838" y1="479.624" x2="-652.8232" y2="479.624" gradientTransform="matrix(-0.8579 -0.0783 0.0725 -0.7918 -354.8754 520.3165)">
			<stop  offset="0.3642" style="stop-color:#3B2314"/>
			<stop  offset="0.7655" style="stop-color:#050000"/>
		</linearGradient>
		<path fill="url(#SVGID_13_)" d="M286.492,203.623c0,0-11.371-23.178-34.243-3.858c0,0-9.327,0-12.144-9.736
			c0,0,2.851,5.154,9.944,3.712c0,0,12.192-11.52,24.245-5.517C283.338,192.437,285.892,201.841,286.492,203.623z"/>
		<path fill="#F4B283" d="M253.745,203.103c0,0,3.834,10.874,21.376,8.209C275.122,211.312,255.136,219.306,253.745,203.103z"/>
	</g>
</g>
<path fill="#1F1A26" d="M382.809,339.409"/>
<linearGradient id="SVGID_14_" gradientUnits="userSpaceOnUse" x1="216.4873" y1="370.9268" x2="220.6563" y2="381.3194" gradientTransform="matrix(0.9972 0.0754 0.0754 -0.9972 52.7952 638.8245)">
	<stop  offset="0" style="stop-color:#FDCB95"/>
	<stop  offset="0.1725" style="stop-color:#F5BA8D"/>
</linearGradient>
<path fill="url(#SVGID_14_)" d="M289.926,282.245c0,0,13,0.994,17.44-2.114C307.366,280.131,300.039,288.569,289.926,282.245z"/>
<g>
	<path fill="#553110" d="M328.542,179.108c6.166-3.656,28.815-21.865,38.082,5.832C366.624,184.94,355.104,163.357,328.542,179.108z
		"/>
	<path fill="#553110" d="M285.262,187.471c0,0-20.276-24.396-38.853-8.431C246.409,179.041,265.132,170.395,285.262,187.471z"/>
</g>
<g>
	<g>
		<path fill="#B93B4A" d="M277.761,249.531c0,0,14.181,8.975,46.882,4.119c0,0-8.699,15.502-22.877,19.602
			c0,0-17.307,1.196-19.373-8.985l-0.22-5.333C282.173,258.933,277.974,250.646,277.761,249.531z"/>
		<path fill="#FFFFFF" d="M282.044,251.883c0,0-2.667,9.027,9.867,10.878c4.111,0.608,11.097-0.088,14.416-0.691
			c7.692-1.396,13.575-3.797,18.315-8.421C324.643,253.649,301.189,260.645,282.044,251.883z"/>
		<path fill="#FFFFFF" d="M289.602,260.917c0,0-8.208,2.888-3.309,6.45c3.561,2.589,21.702,6.039,34.811-8.262
			c0,0-18.094,13.708-32.398,6.309C288.705,265.415,287.539,263.696,289.602,260.917z"/>
		<path fill="#F38583" d="M276.353,248.75c0,0,16.14,8.786,48.29,4.899c0,0-10.727,6.558-32.38,4.27
			C292.262,257.919,278.077,255.996,276.353,248.75z"/>
		<path fill="#F38583" d="M282.312,261.591c0,0,1.722,5.813,10.708,6.555c0,0,21.125,0.974,31.542-14.35
			c0,0-10.953,25.37-34.599,20.019C289.963,273.814,279.978,271.621,282.312,261.591z"/>
	</g>
	
		<ellipse transform="matrix(0.0755 -0.9971 0.9971 0.0755 6.0303 549.1161)" fill="#F0AAA6" cx="299.151" cy="271.306" rx="1.387" ry="1.221"/>
	
		<ellipse transform="matrix(0.0756 -0.9971 0.9971 0.0756 9.767 553.1071)" fill="#F0AAA6" cx="303.205" cy="271.286" rx="0.888" ry="0.832"/>
</g>
<g>
	<path fill="#FDCB95" d="M185.954,309.814c0,0-3.378,3.071,0.615,7.679c3.992,4.605,7.371,10.441,7.371,10.441
		s-11.363,2.765-21.191-0.922c-9.827-3.686-14.127-6.143-19.655-6.143c0,0-7.371-6.144-10.442-2.457l1.229,3.071
		c0,0-1.229,0.921,3.071,5.221c4.299,4.3,7.371,7.064,7.371,7.064l10.75,5.527l-7.064-0.923c0,0-7.371-5.834-10.441-2.764
		c0,0,5.22,6.144,9.52,7.984c4.301,1.843,20.27,3.38,20.27,3.38s20.27,3.376,21.499,8.599c1.229,5.222,21.19,63.88,31.326,80.465
		c10.134,16.585,27.64-12.899,32.861-34.704c0,0,16.382-45.531,16.771-46.368c8.882-19.097,0-37.306-19.985-14.655
		c-3.163,3.584-6.307,14.648-6.307,14.648l-11.831,45.869l-30.551-54.467l-2.457-10.444c0,0,0.92-4.605-6.143-11.055
		C195.476,318.414,185.954,309.814,185.954,309.814z"/>
	<path fill="#ECB782" d="M165.071,339.299c0,0,4.302,1.309,11.408,0.864c4.359-0.271,12.731-2.516,18.505,0.149
		c0,0-5.921-3.85-15.211-1.444C171.107,341.113,165.071,339.299,165.071,339.299z"/>
	<path fill="#ECB782" d="M143.879,321.485c0,0,1.362-0.826,4.472,1.395c3.109,2.221,6.773,5.552,6.773,5.552
		s7.717,3.055,11.714,5.053l5.644,2.237l-2.369-1.627l-2.721-1.166c0,0-8.716-4.33-12.047-4.773
		C155.346,328.154,147.513,319.312,143.879,321.485z"/>
	<path fill="#ECB782" d="M153.093,320.871l5.583,4.229l11.991,5.553l3.146,0.628l-14.916-6.624
		C158.899,324.656,155.282,322.082,153.093,320.871z"/>
</g>
<g>
	<path fill="#FDCB95" d="M352.771,328.945c0,0,20.289-4.757,29.346,18.997c9.054,23.757,22.83,63.387,22.83,63.387
		s15.202,29.534-7.361,30.776c0,0-6.881,2.457-14.115-16.423c-7.234-18.883-32.037-70.233-32.037-70.233
		S338.073,339.591,352.771,328.945z"/>
	<path fill="#E5AB70" d="M450.797,321.515c0,0-22.307-3.099-26.255,0.529c0,0-8.296,5.638-4.986,10.312
		c3.308,4.674,16.522-2.549,16.522-2.549S459.704,326.431,450.797,321.515z"/>
	
		<radialGradient id="SVGID_15_" cx="493.4912" cy="110.4248" r="58.2565" gradientTransform="matrix(0.594 -0.0493 -0.0437 -0.527 93.0268 479.8)" gradientUnits="userSpaceOnUse">
		<stop  offset="0" style="stop-color:#F9D896"/>
		<stop  offset="1" style="stop-color:#FDCB95"/>
	</radialGradient>
	<path fill="url(#SVGID_15_)" d="M396.936,442.785c0,0,18.24-2.142,20.597-24.957c2.354-22.817,7.8-76.684,7.8-76.684
		s0.422-11.976-9.717-6.105c0,0-15.55,51.562-18.841,63.146C393.484,409.771,388.916,431.513,396.936,442.785z"/>
	<path fill="#FDCB95" d="M414.334,339.858c0,0,0.673-17.494,17.036-15.555l12.036-0.123c0,0,1.264-2.865,0.901-4.014
		c0,0-3.954,3.03-5.786,3.348c-3.664,0.635-7.18-2.742,7.228-10.536c0,0,4.965-1.701,6.763,0.545
		c2.664,3.33,3.554,7.771,3.554,7.771s3.997-1.11,5.106-7.994c0,0,0.889-3.553,1.332-7.104c0.531-4.251,3.775-4.886,4.441-2.887
		c5.812,17.435-6.898,24.469-11.991,27.091c-5.096,2.622-12.147,2.615-19.455,4.167c-7.311,1.55-10.194,6.267-10.194,6.267
		S414.709,348.624,414.334,339.858z"/>
	<path fill="#ECB782" d="M443.56,314.339c0,0,7.078-3.972,8.952-0.594c1.873,3.38,3.108,7.994,3.108,7.994s-0.968,4.639-2.435,6.176
		c0,0,4.805-3.563,2.435-9.729C453.247,312.021,450.314,309.301,443.56,314.339z"/>
	<path fill="#ECB782" d="M437.803,318.586c0,0,8.846-5.447,10.455-2.045c1.609,3.4,1.146,7.419,1.146,7.419s2.528-7.96-2.109-9.46
		C447.293,314.5,440.96,315.025,437.803,318.586z"/>
</g>
<g>
	<g>
		<path fill="#27273D" d="M342,320.908c0,0-4.219,33.901-24.352,35.086c-20.134,1.183-19.099-34.42-19.099-34.42
			c-29.756,9.549-36.641,8.217-39.305,14.435c-6.936,16.184-18.486,63.315-18.486,63.315l15.377,24.916l13.615-39.681
			c0,0,15.397,29.61,3.553,62.771c-7.458,20.88-12.094,40.112-14.506,51.499c15.981,5.071,32.999,7.814,50.659,7.814
			c19.686,0,38.572-3.409,56.115-9.653c-5.957-14.047-15.578-25.349-28.312-49.657c-13.025-24.871,22.504-68.689,22.504-68.689
			l26.647,53.889c0,0-0.11-7.286,5.034-21.616c4.146-11.547,6.936-19.097,6.936-19.097s-9.838-28.797-16.113-54.923
			C380.945,331.392,342,320.908,342,320.908z"/>
		<path fill="#D682AC" d="M299.496,339.946c0,0-0.378,10.696,3.496,20.933c3.107,8.217,5.994,18.432,5.994,18.432l17.988-17.765
			c0,0,6.217-7.105,7.327-13.102c1.445-7.8,3.554-17.175,3.554-17.175l-10.881-2.146l-11.771,23.316l-3.2-23.539l-10.007,0.788
			L299.496,339.946z"/>
		<path fill="#D682AC" d="M310.029,305.309l0.057,1.776c0,0-9.16,5.552-10.271,8.66c-1.307,3.654,5.329,8.438,13.546,14.656
			l-14.879,25.98l-6.217-33.31c0,0,4.832-8.088,7.162-10.438C301.809,310.232,310.029,305.309,310.029,305.309z"/>
		<path fill="#D682AC" d="M330.471,305.863l0.334,1.667c0,0,8.438,3.773,11.769,7.104c0.52,0.519,2.006,1.95,1.776,2.665
			c-1.998,6.218-17.099,14.435-17.099,14.435l10.215,23.206l12.546-30.091c0,0-0.879-6.544-6.328-11.214
			C341.352,311.638,339.575,310.083,330.471,305.863z"/>
		<polygon fill="#AA6385" points="313.208,330.401 300.923,351.931 301.438,354.606 313.857,339.218 		"/>
		<polygon fill="#AA6385" points="327.736,330.669 324.186,337.497 335.064,349.6 335.398,347.768 		"/>
		<path fill="#E6E7E8" d="M275.678,439.934c0,0,9.282,6.143,27.869,5.329c22.872-0.999,31.311-6.218,31.311-6.218l0.777,4.22
			c0,0-17.986,7.884-41.858,5.662c-14.011-1.305-19.578-3.959-19.578-3.959L275.678,439.934z"/>
		<path fill="#AA6385" d="M323.721,350.016c0,1.188-0.861,2.148-1.927,2.148c-1.062,0-1.925-0.962-1.925-2.148
			c0-1.183,0.861-2.145,1.925-2.145S323.721,348.833,323.721,350.016z"/>
	</g>
	<path fill="#D682AC" d="M392.482,407.957c0,0-8.373,26.244,0.889,32.421c5.329,3.553,18.719-0.99,23.932-18.585l-4.391,17.696
		c0,0-17.766,7.105-24.87,0.889C380.936,434.16,374.273,424.389,392.482,407.957z"/>
	<path fill="#D682AC" d="M240.759,399.324c0,0,9.16,33.503-0.611,39.721c0,0-9.771-0.888-13.324-9.771
		c0,0,6.218,22.206,22.206,7.105c0,0,12.436-6.218,5.33-20.43C254.36,415.951,241.37,394.244,240.759,399.324z"/>
	<g>
		<polygon fill="#BBBDBF" points="296.724,444.492 306.523,444.965 306.741,450.065 296.064,449.856 		"/>
		<polygon fill="#D0D2D3" points="297.342,445.059 296.793,449.6 299.538,449.631 299.867,445.249 		"/>
		<polygon fill="#D0D2D3" points="300.759,445.283 300.354,449.673 306.068,449.874 305.95,445.36 		"/>
		<polygon fill="#F1F1F2" points="300.759,445.283 304.101,445.438 302.952,449.784 300.354,449.673 		"/>
		<polygon fill="#F1F1F2" points="298.752,445.148 297.979,449.628 296.793,449.6 297.342,445.059 		"/>
	</g>
	<path fill="#AA6385" d="M310.061,307.085c0,0,0.469,12.551-6.804,15.255c0,0-5.148-4.218-3.149-7.326
		C302.105,311.904,309.576,307.369,310.061,307.085z"/>
	<path fill="#AA6385" d="M330.797,307.509c0,0,9.422,3.82,12.586,8.039c0,0,1.499,1.11,0.667,2.499
		c-0.833,1.388-1.166,2.221-3.498,4.385C340.552,322.432,334.698,319.674,330.797,307.509z"/>
</g>
<g>
	<path fill="#DFA877" d="M241.248,167.385c0,0,1.771,0.818,37.587-5.2c49.647-8.341,71.054-34.438,71.054-34.438
		s3.102,45.75,41.598,52.021l-30.434-73.621h-20.688l-100.072,53.198L241.248,167.385z"/>
	
		<linearGradient id="SVGID_16_" gradientUnits="userSpaceOnUse" x1="117.9229" y1="517.1738" x2="344.791" y2="517.1738" gradientTransform="matrix(0.9689 0.074 0.0761 -0.9971 50.3682 638.4804)">
		<stop  offset="0.4239" style="stop-color:#A85E20"/>
		<stop  offset="0.94" style="stop-color:#592A0E"/>
	</linearGradient>
	<path fill="url(#SVGID_16_)" d="M231.783,167.326c0,0-27.082,5.582-25.659,40.886c0,0-6.967-22.152-4.996-38.784
		c1.362-11.891,1.554-26.429,17.088-48.431c16.672-23.685,31.98-33.952,52.445-47.843c27.479-18.582,91.282-31.797,106.305,2.629
		c0,0,13.554,1.14,32.633,31.796c16.651,26.825,16.224,71.797,5.377,81.694c0,0,4.614,23.7-4.252,45.414
		c0,0,8.343-19.353-7.756-41.062l-5.544-17.496l-20.718-22.458c0,0-4.632-5.269-9.049-12.39c0,0-16.507-9.552-15.104-28.296
		c0,0-5.99,12.578-28.338,24.852C302.421,149.79,308.585,148.057,231.783,167.326z"/>
	<path fill="#81431D" d="M352.553,112.871c0,0-16.889,27.853-106.333,40.153c-55.711,7.671-40.499,53.994-40.096,54.476
		c0,0-0.961-30.526,28.401-38.306C261.296,162.103,335.159,145.037,352.553,112.871z"/>
	<path fill="#592A0E" d="M352.451,116.469c0,0,1.004,41.083,30.296,62.482c10.839,7.882,22.445,13.471,23.093,20.442
		c0,0,3.766-18.821-25.77-44.525c0,0-21.077-20.043-27.519-41.65L352.451,116.469z"/>
	<path opacity="0.4" fill="#592A0E" enable-background="new    " d="M375.332,80.799c0,0-2.793-13.529-24.111-16.006
		c0,0,19.94,5.75,19.051,17.481c0,0-11.281-7.06-17.496,1.167c0,0,27.084-7.133,29.388,19.752c0,0,1.58-10.576-5.411-16.696
		c0,0,8.441-4.948,17.619,5.057C394.37,91.554,387.178,80.451,375.332,80.799z"/>
	<path fill="#B06F29" d="M251.973,129.708c0,0-49.246,0.118-51.067,47.608C200.906,177.315,214.238,144.223,251.973,129.708z"/>
	
		<linearGradient id="SVGID_17_" gradientUnits="userSpaceOnUse" x1="292.9253" y1="506.4512" x2="228.8657" y2="521.548" gradientTransform="matrix(1 0 0 -1 84 630)">
		<stop  offset="0.4137" style="stop-color:#935423"/>
		<stop  offset="1" style="stop-color:#B26628"/>
	</linearGradient>
	<path fill="url(#SVGID_17_)" d="M282.389,66.792c0,0,25.309,43.451,69.548,46.285c0,0-7.948,8.688-18.48,14.982
		c-8.258,4.976-19.542,7.804-20.264,8.156c0,0-71.66,2.987-83.217-27.981l13.318-12.652
		C243.293,95.582,270.401,71.786,282.389,66.792z"/>
	
		<linearGradient id="SVGID_18_" gradientUnits="userSpaceOnUse" x1="268.4512" y1="494.0781" x2="338.3984" y2="494.0781" gradientTransform="matrix(1 0 0 -1 84 630)">
		<stop  offset="0.4137" style="stop-color:#844D20"/>
		<stop  offset="1" style="stop-color:#663617"/>
	</linearGradient>
	<path fill="url(#SVGID_18_)" d="M352.451,113.101c0,0,36.295,11.127,59.292-1.023c0,0,10.414,20.326,10.655,47.615
		c0,0-6.807,1.666-33.838-11.155C388.562,148.538,364.98,135.717,352.451,113.101z"/>
</g>
<g>
	<g>
		<g>
			<path fill="#FFFFFF" d="M124.545,252.399l-8.069-8.071c-1.606-1.6-4.27-1.551-5.932,0.112l-4.064,4.065
				c-0.258-0.143-0.522-0.291-0.803-0.447c-2.566-1.422-6.081-3.372-9.779-7.072c-3.707-3.708-5.659-7.227-7.085-9.795
				c-0.151-0.272-0.295-0.535-0.438-0.784l2.729-2.725l1.341-1.343c1.666-1.666,1.711-4.327,0.108-5.932l-8.069-8.071
				c-1.603-1.603-4.266-1.555-5.932,0.112l-2.274,2.287l0.062,0.062c-0.762,0.973-1.4,2.095-1.874,3.305
				c-0.437,1.153-0.709,2.251-0.834,3.354c-1.065,8.833,2.971,16.906,13.925,27.86c15.143,15.142,27.345,13.998,27.872,13.942
				c1.146-0.137,2.245-0.411,3.362-0.845c1.201-0.47,2.322-1.105,3.294-1.866l0.05,0.044l2.304-2.256
				C126.101,256.668,126.147,254.007,124.545,252.399z"/>
		</g>
	</g>
</g>
<g>
	<path fill="#FFFFFF" d="M165.062,125.565c1.21,0,2.259-0.399,3.149-1.188l-15.249-15.25c-0.366,0.262-0.72,0.517-1.055,0.759
		c-1.141,0.841-2.068,1.497-2.779,1.967c-0.711,0.471-1.657,0.952-2.838,1.441c-1.182,0.491-2.283,0.736-3.304,0.736h-0.03h-0.029
		c-1.022,0-2.123-0.245-3.305-0.736c-1.182-0.49-2.128-0.97-2.838-1.441c-0.711-0.47-1.637-1.126-2.779-1.967
		c-0.318-0.233-0.671-0.489-1.052-0.764l-15.252,15.254c0.892,0.789,1.941,1.188,3.15,1.188L165.062,125.565L165.062,125.565z"/>
	<path fill="#FFFFFF" d="M119.699,99.525c-1.141-0.761-2.153-1.632-3.034-2.614v23.201l13.44-13.44
		C127.417,104.794,123.953,102.415,119.699,99.525z"/>
	<path fill="#FFFFFF" d="M166.246,99.525c-4.091,2.769-7.568,5.153-10.432,7.153l13.435,13.435V96.911
		C168.387,97.873,167.387,98.744,166.246,99.525z"/>
	<path fill="#FFFFFF" d="M165.062,83.895h-44.211c-1.542,0-2.728,0.521-3.559,1.562s-1.246,2.343-1.246,3.905
		c0,1.261,0.55,2.628,1.651,4.101c1.101,1.471,2.273,2.627,3.514,3.468c0.681,0.481,2.733,1.908,6.158,4.28
		c1.849,1.28,3.456,2.397,4.838,3.361c1.177,0.82,2.192,1.531,3.031,2.121c0.096,0.067,0.247,0.176,0.448,0.319
		c0.216,0.156,0.491,0.353,0.829,0.597c0.651,0.471,1.191,0.851,1.622,1.142c0.43,0.291,0.951,0.615,1.562,0.976
		c0.611,0.36,1.187,0.631,1.727,0.812c0.541,0.18,1.041,0.27,1.502,0.27h0.03h0.029c0.461,0,0.961-0.09,1.502-0.27
		c0.541-0.18,1.116-0.451,1.727-0.812c0.61-0.36,1.131-0.686,1.562-0.976c0.431-0.291,0.972-0.671,1.622-1.142
		c0.337-0.245,0.612-0.441,0.828-0.597c0.201-0.144,0.352-0.251,0.449-0.32c0.653-0.455,1.671-1.162,3.039-2.112
		c2.49-1.73,6.157-4.276,11.017-7.649c1.462-1.021,2.683-2.253,3.665-3.694c0.979-1.441,1.47-2.953,1.47-4.536
		c0-1.321-0.476-2.453-1.426-3.394C167.49,84.366,166.364,83.895,165.062,83.895z"/>
</g>
<path fill="#FFFFFF" d="M522.507,205.215c-16.846,0-30.502,13.656-30.502,30.502c0,16.846,13.656,30.502,30.502,30.502
	c16.847,0,30.503-13.656,30.503-30.502C553.01,218.872,539.354,205.215,522.507,205.215z M523.462,260.694
	c-0.348,0.312-0.709,0.377-0.951,0.377c-0.245,0-0.609-0.066-0.964-0.384c-4.293-3.862-7.453-8.8-9.251-14.266
	c6.7-1.712,13.738-1.736,20.449-0.071C530.95,251.848,527.777,256.814,523.462,260.694z M511.146,241.873
	c-0.367-2.013-0.566-4.071-0.566-6.155s0.199-4.142,0.564-6.155c3.775,0.963,7.646,1.446,11.52,1.446
	c3.77,0,7.538-0.459,11.219-1.372c0.357,1.99,0.553,4.022,0.553,6.081c0,2.059-0.194,4.091-0.553,6.081
	C526.422,239.948,518.597,239.972,511.146,241.873z M521.554,210.742c0.348-0.312,0.709-0.378,0.95-0.378
	c0.245,0,0.61,0.067,0.964,0.384c4.312,3.878,7.481,8.842,9.276,14.337c-6.711,1.664-13.749,1.641-20.45-0.071
	C514.094,219.545,517.256,214.604,521.554,210.742z M538.398,228.266c2.569-0.924,5.074-2.083,7.483-3.474
	c1.56,3.321,2.436,7.022,2.436,10.926c0,3.904-0.876,7.605-2.436,10.925c-2.409-1.392-4.913-2.55-7.483-3.473
	c0.473-2.43,0.729-4.922,0.729-7.452C539.127,233.188,538.871,230.696,538.398,228.266z M543.511,220.744
	c-2.025,1.168-4.126,2.158-6.28,2.958c-1.498-4.62-3.858-8.895-6.935-12.591C535.677,212.818,540.294,216.246,543.511,220.744z
	 M514.719,211.111c-3.051,3.668-5.396,7.905-6.896,12.483c-2.138-0.811-4.222-1.803-6.229-2.978
	C504.807,216.182,509.389,212.802,514.719,211.111z M499.195,224.651c2.394,1.402,4.883,2.575,7.438,3.512
	c-0.484,2.462-0.748,4.989-0.748,7.555c0,2.565,0.263,5.092,0.748,7.555c-2.557,0.938-5.046,2.11-7.438,3.512
	c-1.601-3.356-2.498-7.108-2.498-11.067C496.697,231.758,497.596,228.007,499.195,224.651z M501.595,250.817
	c2.007-1.174,4.091-2.167,6.229-2.978c1.5,4.579,3.845,8.817,6.896,12.484C509.389,258.633,504.807,255.253,501.595,250.817z
	 M530.296,260.324c3.075-3.697,5.436-7.971,6.936-12.591c2.152,0.8,4.253,1.79,6.278,2.958
	C540.294,255.188,535.677,258.616,530.296,260.324z"/>
<path fill="#FFFFFF" d="M499.061,69.739H471.92c-1.823,0-3.313,1.492-3.313,3.315v46.527c0,1.823,1.49,3.315,3.313,3.315h27.141
	c1.823,0,3.315-1.492,3.315-3.315V73.055C502.376,71.231,500.884,69.739,499.061,69.739z M488.809,115.336
	c0,1.823-1.491,3.315-3.314,3.315h-0.006c-1.823,0-3.315-1.492-3.315-3.315v-0.006c0-1.823,1.492-3.315,3.315-3.315h0.006
	c1.823,0,3.314,1.492,3.314,3.315V115.336z M498.235,104.88c0,1.823-1.491,3.315-3.314,3.315h-18.86
	c-1.822,0-3.314-1.492-3.314-3.315V77.033c0-1.823,1.492-3.315,3.314-3.315h18.86c1.823,0,3.314,1.492,3.314,3.315V104.88z"/>
<g enable-background="new    ">
	<path fill="#FCFCFC" d="M145.929,569l-0.019-7.98l-3.914,6.574h-1.387l-3.895-6.402V569h-2.888v-13.3h2.546l4.978,8.265
		l4.902-8.265h2.527l0.038,13.3H145.929z"/>
	<path fill="#FCFCFC" d="M159.533,559.757c0.848,0.754,1.273,1.891,1.273,3.41V569h-2.774v-1.273
		c-0.558,0.95-1.596,1.426-3.116,1.426c-0.786,0-1.466-0.134-2.042-0.399c-0.577-0.266-1.017-0.633-1.32-1.102
		c-0.304-0.469-0.456-1.001-0.456-1.597c0-0.949,0.357-1.697,1.073-2.241c0.716-0.545,1.821-0.817,3.315-0.817h2.356
		c0-0.646-0.197-1.143-0.589-1.491s-0.981-0.522-1.767-0.522c-0.544,0-1.08,0.085-1.605,0.256c-0.525,0.171-0.972,0.402-1.339,0.693
		l-1.064-2.07c0.557-0.393,1.226-0.697,2.004-0.912c0.779-0.216,1.58-0.323,2.404-0.323
		C157.468,558.626,158.684,559.003,159.533,559.757z M157.005,566.806c0.393-0.234,0.671-0.58,0.836-1.036v-1.045h-2.033
		c-1.216,0-1.824,0.399-1.824,1.197c0,0.38,0.149,0.682,0.447,0.902c0.297,0.222,0.706,0.333,1.226,0.333
		C156.163,567.157,156.613,567.04,157.005,566.806z"/>
	<path fill="#FCFCFC" d="M164.435,568.839c-0.811-0.209-1.457-0.472-1.938-0.789l0.988-2.128c0.456,0.292,1.007,0.529,1.653,0.713
		s1.279,0.275,1.9,0.275c1.254,0,1.881-0.311,1.881-0.932c0-0.291-0.171-0.5-0.513-0.627c-0.342-0.126-0.868-0.233-1.577-0.322
		c-0.836-0.127-1.526-0.272-2.071-0.438c-0.545-0.164-1.017-0.456-1.416-0.874s-0.599-1.013-0.599-1.786
		c0-0.646,0.187-1.219,0.561-1.719c0.374-0.501,0.918-0.89,1.634-1.169c0.716-0.278,1.561-0.418,2.537-0.418
		c0.722,0,1.441,0.079,2.157,0.237c0.715,0.159,1.308,0.377,1.776,0.655l-0.988,2.109c-0.9-0.507-1.881-0.76-2.945-0.76
		c-0.633,0-1.108,0.089-1.425,0.266c-0.317,0.178-0.475,0.405-0.475,0.685c0,0.316,0.171,0.538,0.513,0.665
		c0.342,0.126,0.886,0.247,1.634,0.36c0.836,0.14,1.52,0.288,2.052,0.446c0.532,0.159,0.994,0.447,1.387,0.865
		s0.589,1.001,0.589,1.748c0,0.633-0.19,1.196-0.57,1.69s-0.934,0.878-1.663,1.149c-0.729,0.272-1.593,0.409-2.593,0.409
		C166.075,569.152,165.245,569.048,164.435,568.839z"/>
	<path fill="#FCFCFC" d="M181.991,566.72V569h-9.12v-1.786l5.206-6.156h-5.073v-2.279h8.816v1.786l-5.206,6.155H181.991z"/>
	<path fill="#FCFCFC" d="M197.903,559.281c0.779,0.438,1.39,1.052,1.833,1.843c0.443,0.792,0.665,1.714,0.665,2.765
		c0,1.052-0.222,1.974-0.665,2.765c-0.443,0.792-1.054,1.406-1.833,1.843c-0.779,0.438-1.644,0.656-2.593,0.656
		c-1.305,0-2.331-0.412-3.078-1.235v4.769h-2.964v-13.907h2.831v1.178c0.734-0.887,1.805-1.33,3.211-1.33
		C196.259,558.626,197.124,558.845,197.903,559.281z M196.668,565.95c0.487-0.513,0.731-1.199,0.731-2.062
		c0-0.861-0.244-1.548-0.731-2.062c-0.488-0.513-1.111-0.77-1.872-0.77c-0.76,0-1.384,0.257-1.872,0.77
		c-0.488,0.514-0.731,1.2-0.731,2.062c0,0.862,0.244,1.549,0.731,2.062c0.488,0.514,1.112,0.77,1.872,0.77
		C195.557,566.72,196.18,566.464,196.668,565.95z"/>
	<path fill="#FCFCFC" d="M212.238,558.778l-4.617,10.849c-0.469,1.178-1.048,2.008-1.738,2.489
		c-0.691,0.481-1.523,0.722-2.499,0.722c-0.532,0-1.058-0.082-1.577-0.247c-0.52-0.165-0.944-0.393-1.273-0.684l1.083-2.109
		c0.228,0.202,0.491,0.361,0.789,0.476c0.297,0.113,0.592,0.171,0.883,0.171c0.405,0,0.734-0.099,0.988-0.295
		c0.253-0.196,0.481-0.522,0.684-0.979l0.038-0.095l-4.427-10.298h3.059l2.869,6.935l2.888-6.935H212.238z"/>
	<path fill="#FCFCFC" d="M220.332,568.506c-0.292,0.216-0.649,0.377-1.073,0.484c-0.425,0.107-0.871,0.162-1.34,0.162
		c-1.216,0-2.156-0.311-2.821-0.932c-0.665-0.62-0.998-1.532-0.998-2.735v-4.199h-1.577v-2.28h1.577v-2.489h2.964v2.489h2.546v2.28
		h-2.546v4.161c0,0.431,0.111,0.763,0.333,0.997s0.535,0.352,0.94,0.352c0.469,0,0.868-0.126,1.197-0.38L220.332,568.506z"/>
	<path fill="#FCFCFC" d="M229.775,559.757c0.848,0.754,1.273,1.891,1.273,3.41V569h-2.774v-1.273
		c-0.558,0.95-1.596,1.426-3.116,1.426c-0.786,0-1.466-0.134-2.042-0.399c-0.577-0.266-1.017-0.633-1.32-1.102
		c-0.304-0.469-0.456-1.001-0.456-1.597c0-0.949,0.357-1.697,1.073-2.241c0.716-0.545,1.821-0.817,3.315-0.817h2.356
		c0-0.646-0.197-1.143-0.589-1.491s-0.981-0.522-1.767-0.522c-0.544,0-1.08,0.085-1.605,0.256c-0.525,0.171-0.972,0.402-1.339,0.693
		l-1.064-2.07c0.557-0.393,1.226-0.697,2.004-0.912c0.779-0.216,1.58-0.323,2.404-0.323
		C227.71,558.626,228.926,559.003,229.775,559.757z M227.248,566.806c0.393-0.234,0.671-0.58,0.836-1.036v-1.045h-2.033
		c-1.216,0-1.824,0.399-1.824,1.197c0,0.38,0.149,0.682,0.447,0.902c0.297,0.222,0.706,0.333,1.226,0.333
		C226.405,567.157,226.855,567.04,227.248,566.806z"/>
	<path fill="#FCFCFC" d="M243.008,559.766c0.779,0.761,1.168,1.888,1.168,3.383V569h-2.964v-5.396c0-0.81-0.178-1.415-0.532-1.814
		c-0.354-0.398-0.868-0.598-1.539-0.598c-0.748,0-1.343,0.23-1.786,0.693c-0.443,0.462-0.665,1.149-0.665,2.062V569h-2.964v-10.222
		h2.831v1.196c0.392-0.43,0.88-0.763,1.463-0.997c0.583-0.234,1.222-0.352,1.919-0.352
		C241.206,558.626,242.229,559.006,243.008,559.766z"/>
	<path fill="#FCFCFC" d="M247.007,556.878c-0.342-0.316-0.513-0.709-0.513-1.178s0.171-0.861,0.513-1.178
		c0.342-0.317,0.785-0.476,1.33-0.476c0.544,0,0.988,0.152,1.33,0.456c0.342,0.304,0.513,0.684,0.513,1.14
		c0,0.494-0.171,0.903-0.513,1.226c-0.342,0.323-0.786,0.484-1.33,0.484C247.792,557.353,247.349,557.194,247.007,556.878z
		 M246.855,558.778h2.964V569h-2.964V558.778z"/>
	<path fill="#FCFCFC" d="M260.346,559.757c0.848,0.754,1.273,1.891,1.273,3.41V569h-2.774v-1.273
		c-0.558,0.95-1.596,1.426-3.116,1.426c-0.786,0-1.466-0.134-2.042-0.399c-0.577-0.266-1.017-0.633-1.32-1.102
		c-0.304-0.469-0.456-1.001-0.456-1.597c0-0.949,0.357-1.697,1.073-2.241c0.716-0.545,1.821-0.817,3.315-0.817h2.356
		c0-0.646-0.197-1.143-0.589-1.491s-0.981-0.522-1.767-0.522c-0.544,0-1.08,0.085-1.605,0.256c-0.525,0.171-0.972,0.402-1.339,0.693
		l-1.064-2.07c0.557-0.393,1.226-0.697,2.004-0.912c0.779-0.216,1.58-0.323,2.404-0.323
		C258.281,558.626,259.497,559.003,260.346,559.757z M257.818,566.806c0.393-0.234,0.671-0.58,0.836-1.036v-1.045h-2.033
		c-1.216,0-1.824,0.399-1.824,1.197c0,0.38,0.149,0.682,0.447,0.902c0.297,0.222,0.706,0.333,1.226,0.333
		C256.976,567.157,257.426,567.04,257.818,566.806z"/>
	<path fill="#FCFCFC" d="M272.875,562.749c0.298-0.431,0.731-0.905,1.302-1.425c0.418-0.38,0.725-0.7,0.921-0.96
		c0.196-0.259,0.294-0.554,0.294-0.883c0-0.469-0.187-0.84-0.561-1.112c-0.374-0.271-0.871-0.408-1.491-0.408
		c-0.596,0-1.125,0.124-1.586,0.37c-0.463,0.247-0.852,0.593-1.169,1.036l-2.299-1.35c0.532-0.81,1.251-1.438,2.157-1.881
		c0.905-0.443,1.979-0.665,3.22-0.665c1.457,0,2.625,0.311,3.505,0.932c0.88,0.62,1.321,1.481,1.321,2.584
		c0,0.52-0.085,0.976-0.256,1.368c-0.171,0.393-0.38,0.725-0.627,0.997c-0.247,0.272-0.567,0.586-0.959,0.94
		c-0.469,0.418-0.811,0.77-1.026,1.055s-0.323,0.63-0.323,1.035h-2.869C272.429,563.725,272.578,563.18,272.875,562.749z
		 M272.571,568.648c-0.349-0.335-0.522-0.744-0.522-1.226s0.171-0.884,0.513-1.206c0.342-0.323,0.779-0.484,1.311-0.484
		c0.532,0,0.969,0.161,1.311,0.484c0.342,0.322,0.513,0.725,0.513,1.206s-0.174,0.891-0.522,1.226
		c-0.349,0.336-0.782,0.504-1.302,0.504S272.919,568.984,272.571,568.648z"/>
	<path fill="#FCFCFC" d="M287.771,568.801c-0.982-0.285-1.77-0.656-2.365-1.111l1.045-2.318c0.57,0.418,1.248,0.754,2.033,1.007
		c0.785,0.254,1.571,0.38,2.356,0.38c0.874,0,1.52-0.13,1.938-0.39c0.418-0.259,0.627-0.604,0.627-1.035
		c0-0.316-0.123-0.579-0.37-0.788s-0.564-0.377-0.95-0.504c-0.387-0.127-0.909-0.266-1.567-0.418
		c-1.014-0.24-1.843-0.481-2.489-0.722c-0.646-0.241-1.2-0.627-1.662-1.159c-0.463-0.532-0.694-1.241-0.694-2.128
		c0-0.772,0.209-1.473,0.627-2.1s1.048-1.124,1.891-1.491s1.872-0.552,3.087-0.552c0.849,0,1.678,0.102,2.489,0.305
		c0.811,0.202,1.52,0.493,2.128,0.874l-0.95,2.337c-1.229-0.696-2.458-1.045-3.686-1.045c-0.861,0-1.498,0.139-1.909,0.418
		c-0.412,0.278-0.618,0.646-0.618,1.102s0.238,0.795,0.712,1.017c0.475,0.222,1.2,0.44,2.176,0.655
		c1.013,0.241,1.843,0.481,2.489,0.723c0.646,0.24,1.2,0.62,1.663,1.14s0.693,1.223,0.693,2.109c0,0.76-0.212,1.453-0.636,2.08
		c-0.425,0.627-1.061,1.124-1.91,1.491s-1.881,0.551-3.097,0.551C289.769,569.228,288.752,569.086,287.771,568.801z"/>
	<path fill="#FCFCFC" d="M302.752,564.991l-1.425,1.406V569h-2.964v-14.098h2.964v7.979l4.332-4.104h3.534l-4.256,4.332l4.636,5.89
		h-3.591L302.752,564.991z"/>
	<path fill="#FCFCFC" d="M312.433,568.478c-0.854-0.449-1.523-1.073-2.005-1.871c-0.48-0.799-0.722-1.704-0.722-2.718
		c0-1.013,0.241-1.919,0.722-2.717c0.481-0.798,1.15-1.422,2.005-1.871c0.854-0.45,1.821-0.675,2.897-0.675s2.039,0.225,2.889,0.675
		c0.848,0.449,1.513,1.073,1.994,1.871s0.723,1.704,0.723,2.717c0,1.014-0.241,1.919-0.723,2.718
		c-0.481,0.798-1.146,1.422-1.994,1.871c-0.85,0.45-1.812,0.675-2.889,0.675S313.287,568.928,312.433,568.478z M317.201,565.95
		c0.488-0.513,0.732-1.199,0.732-2.062c0-0.861-0.244-1.548-0.732-2.062c-0.487-0.513-1.111-0.77-1.871-0.77
		s-1.387,0.257-1.881,0.77c-0.494,0.514-0.741,1.2-0.741,2.062c0,0.862,0.247,1.549,0.741,2.062c0.494,0.514,1.121,0.77,1.881,0.77
		S316.714,566.464,317.201,565.95z"/>
	<path fill="#FCFCFC" d="M332.192,559.766c0.779,0.761,1.169,1.888,1.169,3.383V569h-2.965v-5.396c0-0.81-0.178-1.415-0.531-1.814
		c-0.355-0.398-0.868-0.598-1.539-0.598c-0.748,0-1.343,0.23-1.786,0.693c-0.443,0.462-0.665,1.149-0.665,2.062V569h-2.964v-10.222
		h2.831v1.196c0.393-0.43,0.88-0.763,1.463-0.997c0.582-0.234,1.223-0.352,1.919-0.352
		C330.391,558.626,331.414,559.006,332.192,559.766z"/>
	<path fill="#FCFCFC" d="M342.633,568.506c-0.291,0.216-0.649,0.377-1.073,0.484c-0.425,0.107-0.871,0.162-1.34,0.162
		c-1.216,0-2.156-0.311-2.821-0.932c-0.665-0.62-0.998-1.532-0.998-2.735v-4.199h-1.576v-2.28h1.576v-2.489h2.965v2.489h2.545v2.28
		h-2.545v4.161c0,0.431,0.11,0.763,0.332,0.997s0.535,0.352,0.94,0.352c0.469,0,0.868-0.126,1.197-0.38L342.633,568.506z"/>
	<path fill="#FCFCFC" d="M352.076,559.757c0.848,0.754,1.273,1.891,1.273,3.41V569h-2.774v-1.273
		c-0.558,0.95-1.597,1.426-3.116,1.426c-0.785,0-1.467-0.134-2.043-0.399s-1.016-0.633-1.32-1.102
		c-0.304-0.469-0.455-1.001-0.455-1.597c0-0.949,0.357-1.697,1.072-2.241c0.717-0.545,1.821-0.817,3.316-0.817h2.355
		c0-0.646-0.196-1.143-0.589-1.491s-0.981-0.522-1.767-0.522c-0.545,0-1.08,0.085-1.605,0.256s-0.973,0.402-1.34,0.693l-1.064-2.07
		c0.558-0.393,1.227-0.697,2.005-0.912c0.779-0.216,1.58-0.323,2.403-0.323C350.012,558.626,351.227,559.003,352.076,559.757z
		 M349.549,566.806c0.393-0.234,0.672-0.58,0.836-1.036v-1.045h-2.033c-1.215,0-1.824,0.399-1.824,1.197
		c0,0.38,0.149,0.682,0.447,0.902c0.297,0.222,0.706,0.333,1.226,0.333C348.707,567.157,349.156,567.04,349.549,566.806z"/>
	<path fill="#FCFCFC" d="M360.416,564.991l-1.424,1.406V569h-2.965v-14.098h2.965v7.979l4.332-4.104h3.533l-4.256,4.332l4.637,5.89
		h-3.592L360.416,564.991z"/>
	<path fill="#FCFCFC" d="M375.16,568.506c-0.291,0.216-0.648,0.377-1.072,0.484c-0.426,0.107-0.871,0.162-1.34,0.162
		c-1.217,0-2.156-0.311-2.822-0.932c-0.664-0.62-0.997-1.532-0.997-2.735v-4.199h-1.577v-2.28h1.577v-2.489h2.964v2.489h2.546v2.28
		h-2.546v4.161c0,0.431,0.111,0.763,0.332,0.997c0.223,0.234,0.535,0.352,0.941,0.352c0.469,0,0.867-0.126,1.197-0.38
		L375.16,568.506z"/>
	<path fill="#FCFCFC" d="M387.131,558.778V569h-2.812v-1.216c-0.393,0.443-0.861,0.782-1.406,1.017s-1.133,0.352-1.767,0.352
		c-1.343,0-2.407-0.387-3.192-1.159s-1.178-1.919-1.178-3.439v-5.775h2.964v5.339c0,1.646,0.69,2.47,2.071,2.47
		c0.709,0,1.279-0.23,1.71-0.693c0.431-0.462,0.646-1.149,0.646-2.062v-5.054H387.131z"/>
	<path fill="#FCFCFC" d="M386.75,572.268l0.799-2.146c0.342,0.24,0.76,0.361,1.254,0.361c0.38,0,0.678-0.124,0.893-0.371
		s0.323-0.617,0.323-1.111v-10.222h2.964v10.203c0,1.19-0.339,2.131-1.016,2.821c-0.679,0.69-1.625,1.035-2.842,1.035
		C388.087,572.838,387.295,572.648,386.75,572.268z M390.17,556.878c-0.342-0.316-0.512-0.709-0.512-1.178s0.17-0.861,0.512-1.178
		c0.343-0.317,0.786-0.476,1.33-0.476c0.545,0,0.988,0.152,1.33,0.456s0.514,0.684,0.514,1.14c0,0.494-0.172,0.903-0.514,1.226
		c-0.342,0.323-0.785,0.484-1.33,0.484C390.956,557.353,390.513,557.194,390.17,556.878z"/>
	<path fill="#FCFCFC" d="M402.045,568.839c-0.811-0.209-1.457-0.472-1.938-0.789l0.988-2.128c0.455,0.292,1.006,0.529,1.652,0.713
		s1.279,0.275,1.9,0.275c1.254,0,1.881-0.311,1.881-0.932c0-0.291-0.172-0.5-0.514-0.627c-0.342-0.126-0.867-0.233-1.576-0.322
		c-0.836-0.127-1.527-0.272-2.071-0.438c-0.545-0.164-1.017-0.456-1.415-0.874c-0.399-0.418-0.6-1.013-0.6-1.786
		c0-0.646,0.188-1.219,0.561-1.719c0.374-0.501,0.919-0.89,1.635-1.169c0.715-0.278,1.561-0.418,2.536-0.418
		c0.722,0,1.44,0.079,2.157,0.237c0.715,0.159,1.307,0.377,1.775,0.655l-0.987,2.109c-0.899-0.507-1.882-0.76-2.945-0.76
		c-0.634,0-1.108,0.089-1.425,0.266c-0.316,0.178-0.475,0.405-0.475,0.685c0,0.316,0.17,0.538,0.513,0.665
		c0.342,0.126,0.886,0.247,1.634,0.36c0.836,0.14,1.52,0.288,2.053,0.446c0.531,0.159,0.994,0.447,1.387,0.865
		s0.588,1.001,0.588,1.748c0,0.633-0.189,1.196-0.569,1.69s-0.935,0.878-1.663,1.149c-0.729,0.272-1.592,0.409-2.593,0.409
		C403.686,569.152,402.855,569.048,402.045,568.839z"/>
	<path fill="#FCFCFC" d="M411.336,556.878c-0.342-0.316-0.514-0.709-0.514-1.178s0.172-0.861,0.514-1.178
		c0.342-0.317,0.785-0.476,1.33-0.476s0.988,0.152,1.33,0.456s0.513,0.684,0.513,1.14c0,0.494-0.171,0.903-0.513,1.226
		c-0.342,0.323-0.785,0.484-1.33,0.484S411.678,557.194,411.336,556.878z M411.184,558.778h2.965V569h-2.965V558.778z"/>
	<path fill="#FCFCFC" d="M426.859,564.725h-7.734c0.141,0.634,0.469,1.134,0.988,1.501c0.52,0.368,1.166,0.552,1.938,0.552
		c0.532,0,1.003-0.079,1.415-0.238c0.412-0.158,0.795-0.408,1.15-0.75l1.596,1.71c-0.254,0.266-0.514,0.494-0.779,0.684
		c-0.798,0.583-1.35,1.09-1.652,1.521c-0.305,0.431-0.457,0.842-0.457,1.235c0,0.304,0.099,0.541,0.295,0.712
		s0.465,0.257,0.808,0.257c0.405,0,0.778-0.096,1.121-0.285l0.437,1.349c-0.24,0.127-0.535,0.231-0.883,0.313
		c-0.35,0.083-0.693,0.124-1.036,0.124c-0.811,0-1.45-0.199-1.919-0.599s-0.703-0.935-0.703-1.605c0-0.354,0.079-0.713,0.238-1.073
		c0.158-0.361,0.389-0.694,0.693-0.998c-0.089,0.013-0.223,0.02-0.399,0.02c-1.153,0-2.173-0.225-3.06-0.675
		c-0.887-0.449-1.57-1.073-2.051-1.871c-0.482-0.799-0.723-1.704-0.723-2.718c0-1,0.238-1.902,0.713-2.707s1.127-1.432,1.957-1.881
		c0.829-0.45,1.758-0.675,2.783-0.675c1,0,1.906,0.216,2.717,0.646s1.447,1.048,1.91,1.852c0.462,0.805,0.693,1.739,0.693,2.803
		C426.916,563.965,426.896,564.231,426.859,564.725z M419.924,561.438c-0.456,0.38-0.734,0.899-0.836,1.558h5.035
		c-0.102-0.646-0.381-1.162-0.836-1.549c-0.457-0.386-1.014-0.579-1.672-0.579C420.943,560.868,420.38,561.058,419.924,561.438z"/>
	<path fill="#FCFCFC" d="M442.686,566.72V569h-9.12v-1.786l5.206-6.156h-5.073v-2.279h8.815v1.786l-5.205,6.155H442.686z"/>
	<path fill="#FCFCFC" d="M459.244,559.766c0.779,0.761,1.168,1.888,1.168,3.383V569h-2.964v-5.396c0-0.81-0.178-1.415-0.532-1.814
		c-0.354-0.398-0.867-0.598-1.539-0.598c-0.747,0-1.342,0.23-1.785,0.693c-0.443,0.462-0.666,1.149-0.666,2.062V569h-2.963v-10.222
		h2.83v1.196c0.393-0.43,0.881-0.763,1.463-0.997c0.583-0.234,1.223-0.352,1.92-0.352
		C457.441,558.626,458.465,559.006,459.244,559.766z"/>
	<path fill="#FCFCFC" d="M470.862,559.757c0.849,0.754,1.272,1.891,1.272,3.41V569h-2.773v-1.273
		c-0.558,0.95-1.596,1.426-3.116,1.426c-0.786,0-1.466-0.134-2.042-0.399c-0.577-0.266-1.018-0.633-1.32-1.102
		c-0.305-0.469-0.457-1.001-0.457-1.597c0-0.949,0.357-1.697,1.074-2.241c0.715-0.545,1.82-0.817,3.314-0.817h2.357
		c0-0.646-0.197-1.143-0.59-1.491s-0.981-0.522-1.768-0.522c-0.544,0-1.079,0.085-1.605,0.256c-0.525,0.171-0.972,0.402-1.339,0.693
		l-1.063-2.07c0.557-0.393,1.225-0.697,2.004-0.912c0.779-0.216,1.58-0.323,2.404-0.323
		C468.797,558.626,470.014,559.003,470.862,559.757z M468.335,566.806c0.393-0.234,0.671-0.58,0.837-1.036v-1.045h-2.033
		c-1.217,0-1.824,0.399-1.824,1.197c0,0.38,0.148,0.682,0.446,0.902c0.298,0.222,0.706,0.333,1.226,0.333
		C467.492,567.157,467.942,567.04,468.335,566.806z"/>
	<path fill="#FCFCFC" d="M490.954,559.757c0.754,0.754,1.131,1.884,1.131,3.392V569h-2.964v-5.396c0-0.81-0.168-1.415-0.504-1.814
		c-0.336-0.398-0.814-0.598-1.435-0.598c-0.696,0-1.247,0.225-1.653,0.674c-0.404,0.45-0.607,1.118-0.607,2.005V569h-2.964v-5.396
		c0-1.608-0.646-2.412-1.938-2.412c-0.684,0-1.229,0.225-1.634,0.674c-0.405,0.45-0.608,1.118-0.608,2.005V569h-2.963v-10.222h2.83
		v1.178c0.381-0.431,0.846-0.76,1.396-0.988c0.551-0.228,1.156-0.342,1.814-0.342c0.723,0,1.375,0.143,1.957,0.428
		c0.583,0.285,1.052,0.7,1.406,1.244c0.418-0.532,0.947-0.943,1.586-1.234c0.641-0.292,1.34-0.438,2.1-0.438
		C489.184,558.626,490.201,559.003,490.954,559.757z"/>
	<path fill="#FCFCFC" d="M494.896,556.878c-0.342-0.316-0.513-0.709-0.513-1.178s0.171-0.861,0.513-1.178
		c0.342-0.317,0.785-0.476,1.33-0.476s0.988,0.152,1.33,0.456s0.514,0.684,0.514,1.14c0,0.494-0.172,0.903-0.514,1.226
		c-0.342,0.323-0.785,0.484-1.33,0.484S495.238,557.194,494.896,556.878z M494.745,558.778h2.964V569h-2.964V558.778z"/>
</g>
</svg>
