<?xml version="1.0" encoding="utf-8"?>
<!-- Generator: Adobe Illustrator 16.0.0, SVG Export Plug-In . SVG Version: 6.00 Build 0)  -->
<!DOCTYPE svg PUBLIC "-//W3C//DTD SVG 1.1//EN" "http://www.w3.org/Graphics/SVG/1.1/DTD/svg11.dtd">
<svg version="1.1" id="Layer_1" focusable="false" xmlns="http://www.w3.org/2000/svg" xmlns:xlink="http://www.w3.org/1999/xlink"
	 x="0px" y="0px" width="591.161px" height="599.393px" viewBox="0 47.735 591.161 599.393"
	 enable-background="new 0 47.735 591.161 599.393" xml:space="preserve">
<path d="M557.733,625.788l29.182-120.613c3.162-13.104-3.557-26.664-15.822-32.143l-129.621-57.186
	c-11.342-5.002-24.746-1.889-32.637,7.682l-58.41,69.844c-88.729-42.797-162.126-116.707-203.833-208.189l71.062-56.917
	c9.734-7.804,13.129-21.023,8.366-32.468L171.592,64.996c-5.333-12.497-18.746-19.499-31.915-16.616L18.472,75.003
	C5.885,77.776-3.3,88.841-3.439,101.979c-3.148,297.74,235.533,541.992,533.738,545.146
	C543.321,647.262,554.692,638.43,557.733,625.788z"/>
</svg>
