<?xml version="1.0" encoding="utf-8"?>
<!-- Generator: Adobe Illustrator 16.0.0, SVG Export Plug-In . SVG Version: 6.00 Build 0)  -->
<!DOCTYPE svg PUBLIC "-//W3C//DTD SVG 1.1//EN" "http://www.w3.org/Graphics/SVG/1.1/DTD/svg11.dtd">
<svg version="1.1" id="Layer_1" xmlns="http://www.w3.org/2000/svg" xmlns:xlink="http://www.w3.org/1999/xlink" x="0px" y="0px"
	 width="797.631px" height="465px" viewBox="0 0 797.631 465" enable-background="new 0 0 797.631 465" xml:space="preserve">
<g>
	<path fill="#C0272D" d="M392.941,314.251c-3.905,0-7.411-2.504-8.647-6.261l-19.961-60.638l-7.628,17.8
		c-1.436,3.349-4.729,5.521-8.372,5.521H0v-18.217h342.327l14.753-34.424c1.492-3.481,4.981-5.678,8.767-5.512
		c3.784,0.165,7.072,2.654,8.256,6.251l16.146,49.049l16.034-91.351c0.746-4.253,4.376-7.397,8.692-7.529
		c4.35-0.143,8.132,2.786,9.137,6.984l18.559,77.568h15.858l16.308-38.055c1.494-3.486,4.98-5.674,8.783-5.511
		c3.79,0.171,7.077,2.674,8.25,6.281l16.704,51.345l15.987-91.084c0.737-4.205,4.298-7.333,8.563-7.524
		c4.271-0.195,8.091,2.607,9.202,6.729l21.527,79.894H800v18.217H556.876c-4.117,0-7.724-2.763-8.795-6.738l-12.67-47.021
		l-15.216,86.69c-0.723,4.12-4.158,7.218-8.33,7.512c-4.167,0.289-8.008-2.291-9.302-6.269l-20.522-63.083l-9.134,21.313
		c-1.436,3.349-4.729,5.521-8.372,5.521h-29.05c-4.214,0-7.878-2.891-8.858-6.989l-10.002-41.803l-14.708,83.798
		c-0.722,4.114-4.149,7.209-8.315,7.511C393.381,314.243,393.16,314.251,392.941,314.251z"/>
	<g>
		<defs>
			<path id="SVGID_1_" d="M122,237.456V0h559.405v242.361c-2.812-1.151-5.887-1.792-9.108-1.792h-96.949l-18.537-68.798
				c-2.831-10.501-12.398-17.835-23.266-17.835c-0.366,0-0.736,0.009-1.091,0.025c-11.379,0.509-20.7,8.7-22.667,19.916
				l-5.785,32.962c-4.08-6.921-11.491-11.525-19.739-11.898c-0.348-0.015-0.694-0.022-1.04-0.022
				c-9.666,0-18.369,5.735-22.173,14.612l-8.646,20.176L438.7,172.434c-2.607-10.891-12.238-18.498-23.421-18.498
				c-0.264,0-0.529,0.004-0.762,0.012c-11.367,0.347-21.044,8.729-23.009,19.929l-6.028,34.345
				c-4.209-6.255-11.24-10.351-18.977-10.688c-0.354-0.015-0.706-0.023-1.058-0.023c-9.653,0-18.348,5.735-22.153,14.612
				l-10.857,25.333H122z M672.297,288.786H556.876c-6.559,0-12.643-2.666-17.061-7.087l-4.846,27.61
				c-1.917,10.926-10.984,19.103-22.05,19.882c-0.576,0.04-1.135,0.06-1.689,0.06c-10.476,0-19.691-6.691-22.932-16.65
				l-9.856-30.299c-3.983,2.812-8.812,4.409-13.907,4.409h-29.05c-5.198,0-10.062-1.639-14.041-4.484l-4.753,27.083
				c-1.913,10.903-10.962,19.079-22.005,19.879c-0.605,0.042-1.178,0.062-1.745,0.062c-10.432,0-19.633-6.659-22.895-16.571
				l-9.906-30.091c-3.532,1.983-7.578,3.084-11.808,3.084H122V465h559.405V286.994C678.593,288.146,675.519,288.786,672.297,288.786
				z"/>
		</defs>
		<clipPath id="SVGID_2_">
			<use xlink:href="#SVGID_1_"  overflow="visible"/>
		</clipPath>
		<g clip-path="url(#SVGID_2_)">
			<linearGradient id="SVGID_3_" gradientUnits="userSpaceOnUse" x1="399.9995" y1="10.6021" x2="399.9995" y2="460.3047">
				<stop  offset="0" style="stop-color:#EC1C24"/>
				<stop  offset="1" style="stop-color:#C0272D"/>
			</linearGradient>
			<path fill="url(#SVGID_3_)" d="M534.87,7.312c-46.973,0-88.422,23.602-113.244,59.463c0,0-8.371,12.55-21.626,12.55
				c-13.254,0-21.625-12.55-21.625-12.55C353.551,30.915,312.109,7.312,265.123,7.312c-75.915,0-137.42,61.49-137.42,137.478
				c0,17.905,3.531,34.989,9.76,50.685C175.953,315.005,348.138,455.572,400,460.688c51.854-5.115,224.046-145.683,262.53-265.212
				c6.278-15.696,9.767-32.78,9.767-50.685C672.297,68.803,610.792,7.312,534.87,7.312L534.87,7.312z M534.87,7.312"/>
			<linearGradient id="SVGID_4_" gradientUnits="userSpaceOnUse" x1="399.9995" y1="20" x2="399.9995" y2="103.9528">
				<stop  offset="0" style="stop-color:#FFFFFF"/>
				<stop  offset="1" style="stop-color:#FFFFFF;stop-opacity:0"/>
			</linearGradient>
			<path opacity="0.5" fill="url(#SVGID_4_)" d="M651,106c-16.256-48.58-62.17-83.688-116.13-83.688
				c-40.188,0-77.889,19.787-100.864,52.933c-1.735,2.551-13.765,19.08-34.006,19.08c-20.237,0-32.267-16.524-34.004-19.078
				C343.019,42.1,305.314,22.312,265.123,22.312C211.166,22.312,165.255,57.42,149,106H651z"/>
		</g>
	</g>
</g>
</svg>
