<?xml version="1.0" encoding="utf-8"?>
<!-- Generator: Adobe Illustrator 16.0.0, SVG Export Plug-In . SVG Version: 6.00 Build 0)  -->
<!DOCTYPE svg PUBLIC "-//W3C//DTD SVG 1.1//EN" "http://www.w3.org/Graphics/SVG/1.1/DTD/svg11.dtd">
<svg version="1.1" id="Layer_1" focusable="false" xmlns="http://www.w3.org/2000/svg" xmlns:xlink="http://www.w3.org/1999/xlink"
	 x="0px" y="0px" width="490px" height="490px" viewBox="235 35 490 490" enable-background="new 235 35 490 490"
	 xml:space="preserve">
<path d="M672.5,525h-385c-28.995,0-52.5-23.505-52.5-52.5v-385c0-28.995,23.505-52.5,52.5-52.5h385c28.995,0,52.5,23.505,52.5,52.5
	v385C725,501.495,701.495,525,672.5,525z M448.625,417.748l201.25-201.25c6.833-6.834,6.833-17.915,0-24.749l-24.749-24.748
	c-6.833-6.834-17.914-6.835-24.749,0L436.25,331.127L359.623,254.5c-6.834-6.834-17.915-6.834-24.75,0l-24.748,24.748
	c-6.834,6.833-6.834,17.915,0,24.749l113.75,113.75C430.71,424.583,441.79,424.583,448.625,417.748z"/>
</svg>
