<?xml version="1.0" encoding="utf-8"?>
<!-- Generator: Adobe Illustrator 16.0.0, SVG Export Plug-In . SVG Version: 6.00 Build 0)  -->
<!DOCTYPE svg PUBLIC "-//W3C//DTD SVG 1.1//EN" "http://www.w3.org/Graphics/SVG/1.1/DTD/svg11.dtd">
<svg version="1.1" id="Layer_1" focusable="false" xmlns="http://www.w3.org/2000/svg" xmlns:xlink="http://www.w3.org/1999/xlink"
	 x="0px" y="0px" width="490px" height="490px" viewBox="235 35 490 490" enable-background="new 235 35 490 490"
	 xml:space="preserve">
<path d="M690,227.5H532.5V70c0-19.327-15.674-35-35-35h-35c-19.326,0-35,15.673-35,35v157.5H270c-19.327,0-35,15.673-35,35v35
	c0,19.326,15.673,35,35,35h157.5V490c0,19.326,15.674,35,35,35h35c19.326,0,35-15.674,35-35V332.5H690c19.326,0,35-15.674,35-35v-35
	C725,243.173,709.326,227.5,690,227.5z"/>
</svg>
