<?xml version="1.0" encoding="utf-8"?>
<!-- Generator: Adobe Illustrator 16.0.0, SVG Export Plug-In . SVG Version: 6.00 Build 0)  -->
<!DOCTYPE svg PUBLIC "-//W3C//DTD SVG 1.1//EN" "http://www.w3.org/Graphics/SVG/1.1/DTD/svg11.dtd">
<svg version="1.1" xmlns="http://www.w3.org/2000/svg" xmlns:xlink="http://www.w3.org/1999/xlink" x="0px" y="0px" width="5000px"
	 height="5000px" viewBox="0 0 5000 5000" enable-background="new 0 0 5000 5000" xml:space="preserve">
<g id="Layer_1">
	<rect fill="#14A292" width="5000" height="5000"/>
	<circle fill="#43B5A8" cx="2498.412" cy="2500" r="2001"/>
</g>
<g id="Layer_2">
	<polygon fill="#E4A544" points="4034.076,2444.185 2506.429,3670.496 962.751,2444.185 	"/>
	<path fill="#E09F3B" d="M4033.975,2444.187H962.747l1376.229-1157.402c92.132-77.482,226.639-77.482,318.771,0L4033.975,2444.187z"
		/>
	<path fill="#F3BD5D" d="M4033.961,2444.194h-228.053l-1102.562-936.335c-170.02-143.339-237.09-151.23-409.868,0.007
		l-1103.75,936.328H962.764l1376.61-1157.769c91.881-77.275,226.024-77.276,317.907-0.004L4033.961,2444.194z"/>
	<rect x="1381.958" y="917.292" fill="#F4F4F4" width="2232.909" height="2972.927"/>
	<rect x="2525.771" y="1661.704" fill="#838B99" width="1012.261" height="12.065"/>
	<rect x="1486.151" y="2018.136" fill="#D7DAE1" width="1039.619" height="42.033"/>
	<rect x="1486.151" y="2159.974" fill="#D7DAE1" width="2024.521" height="42.033"/>
	<rect x="1486.151" y="2301.812" fill="#D7DAE1" width="2024.521" height="42.032"/>
	<rect x="1486.151" y="2443.649" fill="#D7DAE1" width="2024.521" height="42.032"/>
	<rect x="1486.151" y="2585.486" fill="#D7DAE1" width="2024.521" height="42.033"/>
	<rect x="1486.151" y="2727.324" fill="#D7DAE1" width="2024.521" height="42.033"/>
	<rect x="1486.151" y="2869.162" fill="#D7DAE1" width="2024.521" height="42.032"/>
	<rect x="1486.151" y="3011" fill="#D7DAE1" width="2024.521" height="42.032"/>
	<rect x="1486.151" y="3152.838" fill="#D7DAE1" width="2024.521" height="42.032"/>
	<rect x="1486.151" y="3294.675" fill="#D7DAE1" width="2024.521" height="42.032"/>
	<rect x="1486.151" y="3436.513" fill="#D7DAE1" width="2024.521" height="42.032"/>
	<rect x="1486.151" y="3578.351" fill="#D7DAE1" width="2024.521" height="42.032"/>
	<rect x="1486.151" y="3720.188" fill="#D7DAE1" width="2024.521" height="42.032"/>
	<g>
		<path fill="#838B99" d="M2919.566,1536.418c-27.88,13.497-64.277,20.24-109.2,20.24c-58.606,0-104.685-17.22-138.246-51.678
			c-33.562-34.448-50.337-80.351-50.337-137.708c0-61.082,18.859-110.625,56.596-148.63c37.737-37.994,86.703-56.997,146.896-56.997
			c37.294,0,68.721,4.712,94.291,14.115v82.836c-25.57-15.27-54.688-22.899-87.362-22.899c-35.87,0-64.812,11.279-86.837,33.829
			c-22.013,22.549-33.024,53.089-33.024,91.621c0,36.943,10.383,66.369,31.159,88.301c20.775,21.93,48.748,32.891,83.907,32.891
			c33.562,0,64.277-8.166,92.157-24.498V1536.418z"/>
		<path fill="#838B99" d="M3304.196,1168.038l-131.585,381.958h-97.488l-129.986-381.958h92.693l79.641,265.83
			c4.268,14.383,6.835,27.076,7.732,38.087h1.599c1.237-11.898,3.989-24.952,8.248-39.16l79.114-264.757H3304.196z"/>
	</g>
	<rect x="1488.425" y="1082.808" fill="#D7DAE1" width="912.113" height="747.797"/>
	<path fill="#4C4C4C" d="M1696.73,1306.403c-8.568,18.256-15.973,38.757-11.082,58.375c3.085,12.372,10.835,23.174,13.562,35.634
		c5.267,24.06-8.697,46.118-26.177,64.695c-7.042,7.484-6.458,19.514,1.292,26.229c15.476,13.408,3.126,56.862,9.847,77.452
		c7.251,22.218,35.678,23.711,42.93,45.929c3.836,11.755,7.345,25.807-0.081,35.609c-8.227,10.86-26.49,11.194-32.151,23.646
		c-5.885,12.947,6.658,26.364,17.84,34.934c20.33,15.579,40.659,31.159,60.988,46.738c21.992,16.854,44.395,34.139,59.895,57.325
		c-10.035-32.717-6.064-69.641,10.686-99.357c16.499-29.27,45.069-52.888,50.32-86.228c3.578-22.713-4.735-45.801-16.484-65.433
		s-26.933-36.904-39.199-56.204c-23.309-36.671-35.574-80.546-34.736-124.25c0.415,0.078,0.83,0.151,1.245,0.226l-97.618-97.234
		C1703.906,1291.682,1700.209,1298.99,1696.73,1306.403z"/>
	<path fill="#4C4C4C" d="M2192.667,1383.798c-15.39-6.143-32.504-16.048-34.38-32.805c-1.722-15.375,10.324-28.317,16.248-42.562
		c1.188-2.855,2.122-5.775,2.831-8.741l-127.542,70.728c15.174,13.156,31.315,25.658,38.5,44.265
		c8.767,22.703,1.485,48.891-11.049,69.671c-12.534,20.781-29.93,38.023-43.904,57.824c-28.377,40.209-87.046,70.731-37.158,140.435
		c28.836,40.29,27.492,96.634,62.913,130.526c-12.371-13.859-10.231-35.328,3.679-46.838c13.909-11.51,32.694-14.022,49.793-19.451
		c17.099-5.429,35.12-16.779,37.654-34.872c2.033-14.515-6.692-28.214-16.003-39.379s-20.028-22.174-23.293-36.453
		c-3.265-14.278,5.333-32.522,19.699-32.538c17.67-0.021,36.732,7.344,45.809,22.819c9.077,15.475,9.684,35.767,1.55,51.779
		c17.373-8.686,30.341-26.021,33.973-45.416c3.632-19.394-2.158-40.389-15.168-55.001c-8.324-9.351-19.947-17.244-22.047-29.695
		c-3.029-17.958,14.909-31.196,26.714-44.865c12.613-14.604,19.351-33.395,25.818-51.709c4.435-12.557,8.88-26.442,4.227-38.917
		C2225.649,1396.84,2208.057,1389.94,2192.667,1383.798z"/>
	<path fill="#D9B69A" d="M2071.764,1705.373l-21.973-13.564l-6.367,0.6l-9.068,1.562l-7.59,12.344l-98.365,106.825l-100.775-119.169
		l-9.068-1.562l-33.52,12.753c13.45-0.861,44.96-22.041,47.839-23.375c9.743-4.517,26.013-25.084,28.487-28.226
		c9.38-11.921,14.928-27.238,18.145-42.478c1.148-5.404,1.992-10.791,2.617-16.017c3.014-25.33,0.718-46.784,0.718-46.784h96.294
		c0,0-2.136,19.985,0.422,44.141c2.187,20.61,7.793,44.267,21.065,61.137c2.474,3.141,18.744,23.708,28.487,28.226
		c1.512,0.701,11.753,6.333,23.075,7.937C2062.371,1691.15,2065.397,1704.967,2071.764,1705.373z"/>
	<path opacity="0.16" d="M2051.63,1689.159l-2.398,2.085l-6.366,0.6l-9.068,1.562l-7.591,12.344l-148.135-87.589l0.878-7.641
		l1.841-16l0.776-0.017l97.434-2.643c2.187,20.609,7.793,44.267,21.066,61.137c2.474,3.141,18.744,23.708,28.487,28.226
		C2030.066,1681.922,2040.307,1687.555,2051.63,1689.159z"/>
	<polygon fill="#CFCFCF" points="2035.709,1830.537 1796.689,1830.537 1800.351,1774.457 1803.909,1719.979 2023.324,1719.979 
		2032.225,1799.444 	"/>
	<g>
		<polygon fill="#F5F6F7" points="1830.781,1684.394 1839.708,1823.387 1928.401,1720.06 		"/>
		<polygon fill="#F5F6F7" points="2026.021,1684.394 2017.095,1823.387 1928.401,1720.06 		"/>
	</g>
	<path fill="#201F21" d="M2191.145,1791.159c-1.311,8.979-5.576,21.841-11.674,39.841h-200.127c0.023,0,0.05-0.257,0.073-0.311
		c17.992-39.008,29.816-80.466,38.88-110.558c0.008-0.027,0.016-0.088,0.023-0.115c4.532-15.061,8.379-27.311,11.956-34.874
		l12.652,8.764c19.288,10.56,51.346,18.544,78.414,24.186c0.004,0,0.012,0.001,0.016,0.001c7.521,1.566,14.659,2.945,21.028,4.151
		l0.607,0.116c12.408,2.354,30.033,14.426,40.322,31.857l0.128,0.221c3.14,5.363,5.587,11.232,6.976,17.474
		c0.008,0.031,0.012,0.062,0.02,0.093c0.007,0.031,0.015,0.065,0.019,0.097c0.039,0.182,0.078,0.359,0.116,0.541
		c0.12,0.58,0.232,1.168,0.336,1.756c0.008,0.039,0.016,0.077,0.02,0.116c0.027,0.163,0.054,0.405,0.078,0.571
		C2191.837,1780.19,2191.941,1785.668,2191.145,1791.159z"/>
	<path fill="#1A1A1A" d="M2125.87,1715.984c-1.373,0.502-2.881,1.206-4.513,2.096c-0.004,0.004-0.012,0.004-0.016,0.008
		c-20.845,11.345-61.678,52.429-89.117,81.356c-16.186,17.072-27.713,29.986-27.713,29.986c1.067,0.275,2.104,0.617,3.121,1.259
		c0.077,0.05,0.158,0.311,0.235,0.311h-41.223c0.015,0,0.027-0.257,0.042-0.311c13.244-50.574,28.297-86.699,40.516-110.558
		c0.012-0.027,0.027-0.088,0.039-0.115c12.385-24.167,21.847-35.69,23.548-36.293c3.113-1.098,6.268-0.883,9.752,0.207
		C2072.853,1694.003,2125.87,1715.984,2125.87,1715.984z"/>
	<path fill="#201F21" d="M2201.349,1831h-100.54c-2.22-15-4.06-30.294-5.417-44.484c-2.56-26.773,16.182-51.226,41.772-54.374
		c3.027-0.371,6.067-0.521,9.032-0.332c15.521,0.986,28.943,9.424,37.117,22.439l0.128,0.2c3.221,5.173,5.611,11.05,6.976,17.469
		c0.008,0.031,0.012,0.059,0.02,0.09c0.007,0.031,0.015,0.065,0.019,0.096c0.039,0.182,0.078,0.359,0.116,0.541
		c0.027,0.146,0.059,0.293,0.085,0.444c0.085,0.437,0.167,0.874,0.251,1.311c0.008,0.039,0.016,0.158,0.02,0.197
		c0.027,0.139,0.054,0.427,0.078,0.566C2194.312,1792.462,2197.784,1811,2201.349,1831z"/>
	<path fill="#201F21" d="M1877.458,1831h-200.128c-6.098-18-10.363-30.862-11.674-39.841c-0.808-5.557-0.688-11.062,0.167-16.22
		c0.012-0.074,0.023-0.185,0.035-0.259c0.008-0.031,0.012-0.1,0.016-0.127c0.143-0.843,0.309-1.699,0.495-2.531
		c0.027-0.135,0.054-0.279,0.085-0.411c1.415-6.202,3.875-12.036,7.018-17.364c10.29-17.443,27.926-29.535,40.338-31.89l0.607-0.117
		c6.36-1.207,13.491-2.591,21-4.157c0.008,0,0.02-0.004,0.027-0.004c27.071-5.642,59.138-13.638,78.43-24.202l12.652-8.754
		c3.577,7.563,7.424,19.794,11.96,34.855c0.008,0.027,0.016,0.05,0.023,0.077c9.06,30.091,20.884,71.625,38.876,110.634
		C1877.408,1830.743,1877.435,1831,1877.458,1831z"/>
	<path fill="#1A1A1A" d="M1893.85,1831h-44.913c0.078,0,0.159-0.261,0.236-0.311c1.017-0.642,2.054-1.652,3.117-1.927
		c0,0-24.322-25.763-51.938-55.763h-0.003c-23.61-22-49.626-47.341-64.904-55.646c-0.007-0.004-0.019,0.361-0.027,0.357
		c-1.62-0.882-3.121-1.403-4.485-1.901c0,0,53.021-21.924,85.328-31.997c3.488-1.09,6.639-1.249,9.752-0.151
		c1.701,0.604,11.426,12.111,24.415,36.293c0.016,0.027,0.027,0.062,0.042,0.089c12.799,23.846,28.757,60.065,43.335,110.639
		C1893.818,1830.737,1893.834,1831,1893.85,1831z"/>
	<path fill="#201F21" d="M1761.413,1786.516c-1.357,14.19-3.198,29.484-5.417,44.484h-100.539c3.573-20,7.053-38.646,10.367-55.984
		c0.012-0.062,0.023-0.196,0.035-0.258c0.008-0.031,0.012-0.139,0.016-0.166c0.093-0.476,0.186-0.989,0.274-1.465
		c0.07-0.364,0.143-0.744,0.22-1.104c0.027-0.135,0.054-0.279,0.085-0.411c1.392-6.376,3.797-12.225,7.018-17.364
		c8.17-13.027,21.604-21.508,37.132-22.494c2.966-0.189,6.005,0.018,9.033,0.389
		C1745.227,1735.291,1763.969,1759.742,1761.413,1786.516z"/>
	<ellipse fill="#ECD1B5" cx="1939.204" cy="1424.706" rx="152.501" ry="197.747"/>
	<path fill="#D9B69A" d="M1938.162,1228.691l0.658,393.762c-84.248,0.036-153.21-86.78-153.21-196.015
		S1853.915,1228.655,1938.162,1228.691z"/>
	<path fill="#F2EDE2" d="M1905.388,1430.508c0,0-15.9,19.744-35.583,19.744c-19.62,0-35.539-19.744-35.539-19.744
		s15.919-19.759,35.539-19.759C1889.487,1410.749,1905.388,1430.508,1905.388,1430.508z"/>
	<path fill="#4A4342" d="M1883.321,1430.507c0,7.451-6.034,13.483-13.502,13.483c-7.446,0-13.486-6.032-13.486-13.483
		c0-7.454,6.04-13.495,13.486-13.495C1877.287,1417.012,1883.321,1423.053,1883.321,1430.507z"/>
	<path fill="#3A3A3A" d="M1873.368,1450.911c13.023-1.581,21.967-10.121,28.676-15.1c-6.471,5.613-15.17,14.537-28.145,16.109
		c-12.576,1.529-23.765-4.409-34.285-7.736C1849.8,1446.884,1860.801,1452.439,1873.368,1450.911z"/>
	<path fill="#3A3A3A" d="M1822.805,1410.562c4.665,0.598,9.804,1.081,15.633,0.056c5.831-1.023,10.281-3.256,10.281-3.256
		l-0.035,0.038c3.943-2.256,8.668-3.939,14.025-4.775c18.777-2.931,37.862,18.081,41.574,25.243
		c-0.028-0.088-6.319-9.371-14.062-13.495c-7.964-4.242-15.768-6.694-25.211-5.221c-18.512,2.889-30.951,16.969-35.013,23.913
		c0.655-2.424,6.148-11.555,8.654-16.032c-1.057,0.332-6.409,1.794-12.216-0.5c-6.478-2.559-10.366-7.081-10.366-7.081
		S1818.143,1409.965,1822.805,1410.562z"/>
	<path fill="#F2EDE2" d="M1969.123,1430.508c0,0,15.899,19.744,35.582,19.744c19.62,0,35.539-19.744,35.539-19.744
		s-15.919-19.759-35.539-19.759C1985.022,1410.749,1969.123,1430.508,1969.123,1430.508z"/>
	<path fill="#4A4342" d="M1991.189,1430.507c0,7.451,6.034,13.483,13.502,13.483c7.446,0,13.486-6.032,13.486-13.483
		c0-7.454-6.04-13.495-13.486-13.495C1997.223,1417.012,1991.189,1423.053,1991.189,1430.507z"/>
	<path fill="#3A3A3A" d="M2001.142,1450.911c-13.023-1.581-21.966-10.121-28.676-15.1c6.471,5.613,15.17,14.537,28.145,16.109
		c12.576,1.529,23.765-4.409,34.285-7.736C2024.709,1446.884,2013.709,1452.439,2001.142,1450.911z"/>
	<path fill="#3A3A3A" d="M2051.705,1410.562c-4.665,0.598-9.804,1.081-15.634,0.056c-5.831-1.023-10.28-3.256-10.28-3.256
		l0.035,0.038c-3.943-2.256-8.668-3.939-14.025-4.775c-18.777-2.931-37.862,18.081-41.574,25.243
		c0.027-0.088,6.318-9.371,14.062-13.495c7.964-4.242,15.768-6.694,25.211-5.221c18.512,2.889,30.951,16.969,35.013,23.913
		c-0.655-2.424-6.148-11.555-8.653-16.032c1.057,0.332,6.409,1.794,12.216-0.5c6.478-2.559,10.365-7.081,10.365-7.081
		S2056.367,1409.965,2051.705,1410.562z"/>
	<path fill="#FFFFFF" d="M1938.13,1586.388c16.912-0.155,43.467-13.298,44.958-35.2h-89.915
		C1895.671,1572.743,1922.026,1586.241,1938.13,1586.388z"/>
	<g>
		<path fill="#F4A6B0" d="M1981.75,1561.576h-85.242c3.928,6.422,8.792,11.755,15.075,14.966h53.584
			C1972.797,1573.301,1977.458,1567.939,1981.75,1561.576z"/>
	</g>
	<circle fill="#FFFFFF" cx="1875.017" cy="1426.361" r="4.188"/>
	<circle fill="#FFFFFF" cx="2010.147" cy="1426.361" r="4.188"/>
	<path fill="#3A3A3A" d="M1980.689,1376.179c0,0-1.099,4.834,3.076,7.251c0,0,48.779-19.775,83.936,0
		C2067.702,1383.43,2056.935,1358.161,1980.689,1376.179z"/>
	<path fill="#3A3A3A" d="M1893.278,1376.179c0,0,1.099,4.834-3.076,7.251c0,0-48.78-19.775-83.937,0
		C1806.266,1383.43,1817.032,1358.161,1893.278,1376.179z"/>
	<path fill="#4C4C4C" d="M2169.77,1242.72c-28.866-68.552-107.146-115.482-179.898-108.164
		c-36.522-20.053-81.584-19.967-120.713-5.942s-72.838,40.849-101.237,71.696c-23.356,25.37-43.591,53.727-60.114,84.181
		l95.75,96.968c79.167,14.166,166.699-36.758,193.139-114.281c2.158,35.018,43.097,126.134,95.822,143.793l84.848-111.281
		C2181.817,1281.066,2177.306,1260.618,2169.77,1242.72z"/>
	<path opacity="0.16" d="M2081.148,1398.548c-16.255-1.886-48.87-4.55-48.909-4.123c-3.135,0-6.303-0.292-9.4,0.049
		c-16.027,1.76-32.076,3.411-48.031,5.697c-5.519,0.791-10.802,3.307-11.433,10.238c-1.238,13.596-0.315,26.962,4.146,39.979
		c2.441,7.121,7.03,11.96,14.36,14.009c27.769,7.764,55.63,8.461,83.488,0.656c7.36-2.062,13.72-5.88,17.28-13.207
		c6.104-12.558,9.193-25.807,9.374-39.753C2092.122,1404.577,2089.085,1399.47,2081.148,1398.548z"/>
	<path fill="#201F21" d="M2101.357,1391.156c-42.943-7.727-85.921-5.921-128.911-0.502c-11.378,1.436-22.375,4.346-33.954,4.632
		c-11.58-0.286-22.548-3.196-33.926-4.632c-42.99-5.419-85.954-7.225-128.897,0.502c-9.58,1.721-10.137,2.602-8.802,11.866
		c1.204,8.329,0.348,17.555,9.649,22.688c1.428,0.787,1.745,3.807,2.354,5.853c1.173,3.922,2.3,7.87,3.25,11.846
		c4.3,18.071,15.324,27.952,34.128,29.92c27.573,2.879,54.854,2.469,81.964-3.783c8.167-1.884,14.05-6.139,17.161-13.913
		c3.566-8.931,7.194-17.805,10.29-26.906c2.188-6.424,5.676-10.227,12.856-10.242c7.18,0.016,10.668,3.818,12.856,10.242
		c3.095,9.101,6.724,17.975,10.29,26.906c3.111,7.773,8.993,12.029,17.16,13.913c27.111,6.252,54.391,6.663,81.965,3.783
		c18.805-1.968,29.828-11.849,34.127-29.92c0.95-3.976,2.077-7.924,3.25-11.846c0.61-2.045,0.926-5.065,2.354-5.853
		c9.302-5.134,8.445-14.359,9.649-22.688C2111.508,1393.758,2110.938,1392.877,2101.357,1391.156z M1909.515,1450.387
		c-2.439,7.125-7.025,11.958-14.358,14.011c-27.767,7.766-55.626,8.461-83.486,0.656c-7.364-2.061-13.717-5.882-17.284-13.208
		c-6.099-12.56-9.194-25.806-9.372-39.755c-0.1-7.511,2.941-12.621,10.877-13.54c16.257-1.891,48.872-4.554,48.91-4.122
		c3.134,0,6.299-0.293,9.395,0.046c16.033,1.761,32.082,3.413,48.038,5.697c5.512,0.788,10.8,3.304,11.433,10.236
		C1914.903,1424.002,1913.977,1437.372,1909.515,1450.387z M2082.653,1451.846c-3.566,7.326-9.92,11.147-17.284,13.208
		c-27.859,7.805-55.719,7.11-83.485-0.656c-7.334-2.053-11.919-6.885-14.358-14.011c-4.462-13.015-5.388-26.385-4.153-39.979
		c0.633-6.932,5.921-9.449,11.433-10.236c15.957-2.285,32.005-3.937,48.039-5.697c3.095-0.339,6.26-0.046,9.394-0.046
		c0.039-0.432,32.653,2.231,48.911,4.122c7.935,0.919,10.977,6.029,10.876,13.54
		C2091.847,1426.04,2088.751,1439.286,2082.653,1451.846z"/>
	<path opacity="0.16" d="M1795.892,1398.548c16.254-1.886,48.87-4.55,48.909-4.123c3.135,0,6.302-0.292,9.4,0.049
		c16.027,1.76,32.076,3.411,48.031,5.697c5.519,0.791,10.802,3.307,11.433,10.238c1.237,13.596,0.315,26.962-4.146,39.979
		c-2.441,7.121-7.03,11.96-14.36,14.009c-27.769,7.764-55.629,8.461-83.489,0.656c-7.36-2.062-13.72-5.88-17.28-13.207
		c-6.104-12.558-9.193-25.807-9.374-39.753C1784.918,1404.577,1787.955,1399.47,1795.892,1398.548z"/>
	<polygon fill="#FFCB68" points="4034.076,2444.185 4034.076,4166.592 962.751,4166.592 962.751,2444.185 2506.429,3670.496 	"/>
	<polygon fill="#F3BD5D" points="1942.232,3231.844 962.747,4166.592 4034.076,4166.592 3023.111,3231.844 	"/>
	<polygon fill="#EAAA46" points="1942.232,3231.844 962.747,4166.592 1904.411,3201.428 	"/>
	<polygon fill="#EAAA46" points="3023.111,3231.844 4034.076,4166.592 3060.933,3201.428 	"/>
	<path fill="#CE2E51" d="M1986.558,1550.27c-0.313-0.328-0.795-0.52-1.306-0.52h-94.265c-0.514,0-0.999,0.194-1.311,0.524
		c-0.313,0.331-0.418,0.762-0.286,1.164c7.715,23.424,30.737,36.234,48.519,36.396c18.646-0.17,41.446-12.73,48.944-36.409
		C1986.979,1551.024,1986.87,1550.598,1986.558,1550.27z M1937.908,1585.151c-16.104-0.147-36.93-11.645-44.735-32.717h89.915
		C1975.492,1573.721,1954.82,1584.997,1937.908,1585.151z"/>
</g>
</svg>
